<svg width="100" height="93.449" version="1.1" viewBox="0 0 107.5 100.46" xmlns="http://www.w3.org/2000/svg">
 <g transform="translate(-130.75 -26.205)"></g>
 <g transform="matrix(1.32 0 0 1.3233 -155.57 -44.409)">
  <rect x="130.28" y="52.772" width="263.54" height="44.083" rx="14.484" ry="22.042" fill="none" stroke-width=".79031"/>
  <circle cx="158.19" cy="73.719" r="35.752" fill="#373e48"/>
  <path d="m150.5 99.615c-2.1019-0.26311-6.6931-1.2178-8.6637-1.8016l-1.9706-0.58373 3.2498-2.2977c4.5451-3.2135 9.373-7.9043 12.743-12.381 3.0065-3.9941 6.7368-10.556 6.1178-10.762-0.19879-0.0661-1.4008-0.73345-2.671-1.483-8.5183-5.0265-14.765-13.935-17.497-24.954-0.78979-3.1852-1.5896-9.1467-1.1573-8.6261 0.12881 0.15515 0.70801 1.5337 1.2871 3.0634 3.2083 8.4748 8.2172 15.744 13.701 19.883 2.291 1.7292 6.6049 3.9742 8.5032 4.4253 0.94872 0.22542 1.0316 0.13296 1.5634-1.7439 0.83868-2.9598 1.6225-7.5006 1.9425-11.253 0.25111-2.9449 0.31634-3.1631 0.55451-1.8542 1.0576 5.8125 1.2512 19.141 0.37071 25.529l-0.29855 2.1658 1.7002-0.25431c3.9263-0.5873 12.672-4.1185 18.19-7.3444 1.2656-0.73989 2.3012-1.2161 2.3012-1.0582s-0.92975 1.4114-2.0661 2.7856c-4.1312 4.9958-11.589 9.8052-18.461 11.906l-3.0812 0.94173-0.87138 2.8756c-1.1022 3.6374-3.0087 7.7776-4.9528 10.756l-1.5129 2.3178-3.953-0.0555c-2.1742-0.0305-4.4549-0.11837-5.0684-0.19518zm-15.628-13.49c-2.1174-0.27225-6.329-1.537-6.8239-2.0493-0.39104-0.40481 3.7591-3.8495 5.9036-4.9001 1.8177-0.89048 2.4739-1.0038 5.8133-1.0038 3.66 0 3.8448 0.04109 6.6673 1.4834 1.5966 0.81586 2.9532 1.6503 3.0146 1.8542 0.19759 0.65608-3.5441 3.0761-5.9286 3.8346-2.8397 0.90322-5.6916 1.1608-8.6462 0.78096zm12.088-11.208c-1.3338-0.45366-3.5294-1.6109-4.8792-2.5717-2.3664-1.6844-5.5222-4.9921-5.5222-5.7879 0-0.628 3.9754-1.264 7.0224-1.1234 4.8273 0.2227 8.9087 2.9115 11.636 7.6654 1.4183 2.4727 1.2251 2.6517-2.857 2.6464-2.0911-0.0025-3.6944-0.24883-5.3994-0.82872zm-21.401-4.26c-2.2798-0.81324-5.1718-2.618-6.633-4.1393l-1.0711-1.1152 1.0798-0.4163c5.438-2.0964 9.9712-0.849 13.451 3.7012 0.82554 1.0796 1.1147 1.7436 0.86706 1.9907-0.71932 0.71747-5.6608 0.70389-7.6934-0.02114zm48.73-0.4688c-0.35136-0.56707 0.60759-4.3116 1.7011-6.6425 1.4377-3.0645 3.2518-5.2573 6.084-7.3538 2.8956-2.1434 7.5619-4.4015 8.063-3.9017 0.24274 0.24212 0.23649 1.4271-0.0181 3.4821-0.7531 6.0734-3.7377 10.278-9.0623 12.767-2.6925 1.2586-6.443 2.1723-6.7674 1.6487zm-47.416-9.5668c-2.6677-1.6905-4.3725-4.6712-4.9688-8.6872-0.29016-1.9543-0.18985-2.0227 1.7696-1.206 1.6817 0.70088 3.8347 2.5715 4.5518 3.9548 1.0643 2.053 1.4532 6.9859 0.55064 6.9859-0.13771 0-0.99415-0.47134-1.9032-1.0474zm27.706-9.3062c-4.9699-2.8319-8.6914-9.7705-8.718-16.254-7e-3 -1.9009 0.17619-1.9279 3.2503-0.4773 5.6367 2.6599 8.7747 8.3439 8.0961 14.665-0.34399 3.2041-0.46531 3.2994-2.6284 2.0669zm16.718-0.61974c-0.67732-4.5052 1.0265-9.0587 4.8954-13.083 2.6735-2.7807 2.8076-2.7549 3.5269 0.67807 1.0715 5.1144-1.1277 9.9257-5.9611 13.042-0.90908 0.58604-1.7772 1.0655-1.9291 1.0655-0.15195 0-0.39139-0.76602-0.53213-1.7023zm23.073 0.12618c-1.0429-2.5649-1.1289-5.6649-0.23048-8.3102 0.42658-1.2562 1.1424-2.904 1.5908-3.662 0.77013-1.302 0.84394-1.3397 1.3378-0.68282 2.1054 2.8001 2.7569 6.0626 1.7903 8.9654-0.61235 1.839-2.9116 5.2656-3.5332 5.2656-0.17289 0-0.60275-0.70924-0.95522-1.5761z" fill="#5fbcd3" stroke-width=".37131"/>
 </g>
</svg>
