<svg version="1.1" viewBox="0 0 360 75.188" xmlns="http://www.w3.org/2000/svg">
 <defs>
  <filter id="editing-jagged" x="0" y="0" width="1" height="1">
   <feTurbulence baseFrequency="0" result="turb" seed="1"/>
   <feDisplacementMap in="SourceGraphic" in2="turb"/>
  </filter>
 </defs>
 <g transform="matrix(1.4341 0 0 1.4341 0 -7.2816)">
  <rect x="3.6008e-16" y="5.0776" width="251.04" height="52.317" rx="0" ry="0" stroke-width=".5511"/>
  <g transform="matrix(1.1646 0 0 1.1646 -37.924 -16.95)">
   <path d="m193.03 26.678q15.274 0 15.274 14.557t-15.274 14.557h-12.614v-29.114zm-3.2602 6.9828v15.149h3.0878q5.8856 0 5.8856-6.3049v-2.5392q0-6.3049-5.8856-6.3049zm42.955-6.9828q2.2022 0 4.04 0.90909 1.8417 0.90909 2.9232 2.5588 1.0776 1.6497 1.0776 3.6834 0 5.3723-4.8668 6.7712v0.1685q5.5447 1.2696 5.5447 7.2806 0 2.2845-1.1207 4.04-1.1246 1.7555-3.0682 2.7312-1.9475 0.97179-4.2751 0.97179h-19.636v-29.114zm-10.031 6.3872v4.953h6.4342q0.93261 0 1.5439-0.65439 0.61521-0.65831 0.61521-1.6301v-0.4232q0-0.9326-0.6348-1.587-0.6348-0.65831-1.5243-0.65831zm0 10.964v4.9922h7.1121q0.92868 0 1.5439-0.65439 0.61521-0.65831 0.61521-1.6301v-0.4232q0-0.97571-0.61521-1.6301-0.6152-0.65439-1.5439-0.65439z" fill="#a00" stroke-width=".39185"/>
   <g transform="matrix(.62581 0 0 .62581 -24.167 -5.1202)" fill="#fff" filter="url(#editing-jagged)">
    <g transform="translate(178,96.695)" fill="#fff">
     <path d="m3.46-7.55v-34.11q0.64-0.2 2.04-0.42 1.41-0.22 2.88-0.22 1.41 0 2.53 0.19t1.89 0.77q0.77 0.57 1.15 1.56 0.39 1 0.39 2.6v6.27q1.6-0.64 3.04-0.9 1.44-0.25 3.16-0.25 3.08 0 5.83 1.08 2.75 1.09 4.86 3.17t3.33 5.15q1.22 3.08 1.22 7.11 0 4.16-1.25 7.26-1.25 3.11-3.49 5.15-2.24 2.05-5.47 3.11-3.23 1.05-7.14 1.05-4.22 0-7.17-0.99-2.94-0.99-4.99-2.46-2.81-1.99-2.81-5.12zm14.97 0q2.95 0 4.58-2.02 1.63-2.01 1.63-5.98 0-4.03-1.66-6.02-1.67-1.98-4.48-1.98-1.28 0-2.21 0.25-0.93 0.26-2.02 0.77v13.95q0.71 0.45 1.7 0.74t2.46 0.29zm22.66-4.8v-18.31q0.64-0.19 2.01-0.38 1.38-0.19 2.85-0.19 1.41 0 2.53 0.19t1.89 0.77q0.77 0.57 1.18 1.57 0.42 0.99 0.42 2.59v13.76q0 2.62 1.28 3.74t3.71 1.12q1.47 0 2.4-0.25 0.93-0.26 1.44-0.52v-22.4q0.64-0.19 2.02-0.38 1.37-0.19 2.84-0.19 1.41 0 2.53 0.19t1.89 0.77q0.77 0.57 1.18 1.57 0.42 0.99 0.42 2.59v19.45q0 3.2-2.69 4.8-2.24 1.41-5.34 2.15-3.11 0.73-6.75 0.73-3.46 0-6.37-0.76-2.91-0.77-5.03-2.37-2.11-1.6-3.26-4.13t-1.15-6.11zm63.49 3.07q0 4.86-3.65 7.62-3.65 2.75-10.75 2.75-2.69 0-5-0.39-2.3-0.38-3.93-1.18t-2.56-2.02q-0.93-1.21-0.93-2.88 0-1.53 0.64-2.59 0.64-1.05 1.54-1.76 1.85 1.03 4.25 1.83t5.54 0.8q1.98 0 3.04-0.58 1.05-0.58 1.05-1.54 0-0.89-0.76-1.4-0.77-0.52-2.56-0.84l-1.92-0.38q-5.57-1.09-8.29-3.42-2.72-2.34-2.72-6.69 0-2.37 1.02-4.29 1.03-1.92 2.88-3.2 1.86-1.28 4.45-1.98 2.59-0.71 5.73-0.71 2.37 0 4.45 0.35 2.08 0.36 3.61 1.06 1.54 0.7 2.43 1.82 0.9 1.12 0.9 2.66 0 1.47-0.54 2.53-0.55 1.05-1.38 1.76-0.51-0.32-1.54-0.67-1.02-0.36-2.24-0.64-1.21-0.29-2.46-0.48-1.25-0.2-2.27-0.2-2.11 0-3.27 0.48-1.15 0.48-1.15 1.51 0 0.7 0.64 1.15t2.43 0.83l1.99 0.45q6.14 1.41 8.73 3.87 2.6 2.47 2.6 6.37zm35.96-10.18v19.4q-0.64 0.19-2.01 0.38-1.38 0.19-2.85 0.19-1.41 0-2.53-0.19t-1.89-0.77q-0.76-0.57-1.18-1.57-0.42-0.99-0.42-2.59v-14.21q0-2.62-1.31-3.68-1.31-1.05-3.23-1.05-1.28 0-2.43 0.32t-1.86 0.77v22.4q-0.64 0.19-2.01 0.38-1.38 0.19-2.85 0.19-1.41 0-2.53-0.19t-1.89-0.77q-0.77-0.57-1.18-1.57-0.42-0.99-0.42-2.59v-37.12q0.71-0.13 2.08-0.35 1.38-0.22 2.79-0.22 1.4 0 2.52 0.19t1.89 0.77q0.77 0.57 1.19 1.56 0.41 1 0.41 2.6v6.27q0.83-0.32 2.53-0.74 1.7-0.41 3.74-0.41 6.34 0 9.89 3.16 3.55 3.17 3.55 9.44z" fill="#fff"/>
    </g>
   </g>
  </g>
  <path d="m23.287 56.984c0.30818-0.31973 0.70591-0.92911 1.0219-1.5658l0.51738-1.0423 0.0073-1.7192c0.0068-1.5993 0.02639-1.7639 0.2815-2.3601 0.62509-1.4611 0.87077-1.957 1.2924-2.6085 0.38381-0.59315 0.44898-0.78041 0.48327-1.3888 0.10099-1.7916-1.1738-4.9678-2.6214-6.5314-1.0393-1.1226-2.0504-1.6706-2.8372-1.5378-0.22166 0.0374-0.91871 0.38124-1.549 0.7641-0.63028 0.38286-1.8681 1.0456-2.7508 1.4727-2.405 1.1638-2.7513 1.664-2.8955 4.1831-0.09235 1.6128-0.22748 1.425-0.24153-0.33567-0.01204-1.5077 0.31883-2.7478 0.94577-3.5448 0.11958-0.15202 0.21742-0.31277 0.21742-0.35722 0-0.09559-0.57379-0.33617-1.7999-0.75464l-0.89187-0.3044-0.4212 0.21488c-0.60277 0.30751-1.1166 0.86034-1.9348 2.0815-0.39418 0.58833-0.88588 1.2337-1.0927 1.4341l-0.376 0.36443-0.01065 1.2343c-0.0059 0.67884-0.04914 1.3544-0.09618 1.5013-0.084 0.26229-0.08575 0.26133-0.0974-0.05341-0.0065-0.17626-0.15554-0.79701-0.33113-1.3794-0.1756-0.58243-0.31926-1.145-0.31926-1.2502 0-0.32678 0.21927-0.69267 0.5224-0.87174 0.43653-0.25786 0.86635-0.72317 0.86635-0.93787 0-0.2949-0.72766-0.3949-1.9992-0.27474-0.81563 0.07707-1.2027 0.0697-1.5327-0.02918-0.24284-0.07276-0.41405-0.15975-0.38048-0.19332 0.03357-0.03357 0.64954-0.15078 1.3688-0.26047 2.6532-0.40459 3.8873-0.89532 4.5684-1.8165l0.23188-0.31363-0.82694-0.87662c-1.1578-1.2273-2.1918-2.6531-4.0471-5.5805-1.0531-1.6617-1.6872-2.5613-1.8497-2.6245-0.52074-0.20239-1.4777-0.10245-2.7057 0.28256-0.66428 0.20827-1.3288 0.36451-1.4768 0.34719-0.23059-0.02699-0.15905-0.09775 0.50109-0.49559 1.3457-0.81098 2.8199-1.0919 3.7315-0.711 0.21093 0.08813 0.40333 0.16024 0.42756 0.16024 0.02423 0 0.01372-0.22859-0.02334-0.50799-0.08555-0.64494 0.10408-2.2914 0.44597-3.8719 0.33826-1.5638 0.34609-1.5871 0.46737-1.3909 0.24524 0.3968 0.22784 1.1774-0.05734 2.5719-0.45441 2.222-0.32091 2.978 0.93666 5.3036 0.88744 1.6411 1.0247 1.6643 0.87937 0.14866-0.04843-0.50489-0.09109-1.2305-0.09481-1.6124-0.0082-0.84604 0.20307-1.1815 1.0837-1.7206 0.32573-0.1994 0.89718-0.56158 1.2699-0.80484 0.63799-0.41644 0.66891-0.42581 0.52853-0.16024-0.082 0.15514-0.51669 0.64261-0.96597 1.0833-0.44928 0.44066-0.88545 0.93101-0.96928 1.0897-0.30965 0.58609-0.04548 2.909 0.46104 4.0541 0.17764 0.40158 2.3127 3.1887 2.4427 3.1887 0.10659 0-0.31324-0.83128-0.57697-1.1424-0.15907-0.18766-0.47428-0.559-0.70046-0.82519-0.45079-0.53053-0.55654-0.86889-0.66708-2.1342-0.04978-0.56986-0.03795-0.8215 0.03646-0.77551 0.06058 0.03744 0.14076 0.19003 0.17817 0.33909 0.15461 0.61603 0.69938 1.5606 1.7491 3.0327 0.61137 0.8574 1.2258 1.7831 1.3654 2.0571 0.20269 0.39783 0.36864 0.55434 0.82402 0.77713 1.2124 0.59316 2.2091 0.48525 4.5633-0.49399 0.85195-0.35438 1.7773-0.71306 2.0564-0.79707 0.27909-0.08401 0.50743-0.17652 0.50743-0.20557 0-0.02905-0.11362-0.27957-0.25248-0.5567-0.13887-0.27713-0.3141-0.69617-0.38942-0.93119-0.23913-0.74625-0.74077-1.6928-1.0858-2.0487-0.18354-0.18936-0.65107-0.47555-1.039-0.63597-0.86991-0.35978-1.1327-0.58563-1.4754-1.2679-0.14755-0.29378-0.3675-0.6423-0.48877-0.7745l-0.22049-0.24036h0.26192c0.34819 0 0.63216 0.21146 1.0034 0.74722 0.30032 0.43337 0.74358 0.74836 1.0531 0.74836 0.1175 0 0.08242-0.13644-0.14421-0.56084-0.16472-0.30846-0.52095-1.1764-0.79164-1.9288s-0.6-1.5904-0.73181-1.8623c-0.2234-0.4608-0.28313-0.50616-0.88062-0.66871-0.86093-0.23424-1.1648-0.40861-1.9423-1.1146l-0.6604-0.59962-1.0488-0.06385c-0.66554-0.04052-1.2208-0.13772-1.5194-0.26598-0.25879-0.11117-0.45108-0.21979-0.42731-0.24139 0.02377-0.02159 0.75498-0.0958 1.6249-0.16491l1.5817-0.12565 0.65058 0.60233c0.92181 0.85343 1.3589 1.1153 1.9857 1.1895 0.53143 0.06294 0.54759 0.0567 0.63112-0.2434 0.04715-0.1694 0.0841-0.74064 0.08211-1.2694-0.0033-0.87137-0.037-1.0286-0.35994-1.6786l-0.35633-0.7172 0.2384-0.88521c0.25567-0.94934 0.58262-1.6864 0.74805-1.6864 0.1098 0 0.06479 0.34116-0.17118 1.2973-0.26939 1.0916-0.19961 1.4645 0.45139 2.412 0.26363 0.3837 0.27319 0.44559 0.19434 1.2582-0.14908 1.5363-0.1313 1.6915 0.24254 2.1173 0.28515 0.32477 0.34948 0.50205 0.41185 1.135 0.04065 0.41257 0.13148 0.82885 0.20184 0.92507 0.10896 0.14901 0.15841 0.08197 0.33356-0.45224 0.16135-0.49212 0.20254-0.90324 0.19126-1.9091-0.01425-1.2707-0.05821-1.5535-0.7392-4.7538-0.3921-1.8427-0.39536-3.184-0.01142-4.7004 0.1562-0.61693 0.28406-1.2869 0.28414-1.4888 8e-5 -0.21311-0.20658-0.80934-0.49261-1.4212-0.27101-0.57976-0.46944-1.0774-0.44095-1.1059 0.09358-0.09358 1.0184 1.0184 1.2571 1.5116 0.19315 0.399 0.22658 0.62278 0.19284 1.2909-0.03813 0.75518-0.03014 0.79173 0.12174 0.55683 0.20437-0.31608 0.83816-1.0234 2.1399-2.388 1.7215-1.8047 2.3283-2.9716 2.4303-4.6737 0.03081-0.51411 0.09181-0.93474 0.13556-0.93474 0.15766 0 0.2084 0.50824 0.20984 2.1016 0.0017 1.8487 0.13283 1.5313-1.2948 3.1329-1.3644 1.5306-2.7625 3.3679-3.1623 4.1556-0.39401 0.77626-0.40205 0.81607-0.39917 1.9771 0.0031 1.2498 0.08815 1.6683 0.85437 4.2035 0.54124 1.7908 0.6367 2.7126 0.42314 4.0854-0.32553 2.0926-0.3255 2.3336 3.18e-4 3.1033 0.16045 0.37901 0.45658 1.1218 0.65806 1.6506 0.76092 1.9971 0.81821 2.0694 2.0282 2.5592 0.40336 0.16328 1.08 0.46115 1.5036 0.66193 0.71111 0.33704 0.79628 0.41395 1.1099 1.0023 0.21968 0.41216 0.40674 0.63724 0.52959 0.63724 0.23299 0 2.2755-2.6576 2.8955-3.7675 0.2374-0.42497 0.67916-1.1543 0.9817-1.6207 0.5208-0.80296 0.55201-0.89102 0.58674-1.6558 0.04252-0.93628-0.10973-1.6311-0.75633-3.4517l-0.44578-1.2552h-2.6269l-0.40316 0.40316c-0.72233 0.72233-0.88301 1.7476-0.61204 3.9051 0.10166 0.80947 0.16218 1.4944 0.13449 1.5221-0.08277 0.08277-1.1462-1.6022-1.2586-1.9943-0.10459-0.36467-0.13418-1.3354-0.03307-1.0846 0.02976 0.07381 0.09807 0.10703 0.15181 0.07382 0.12139-0.07502 0.13056-1.0092 0.0099-1.0092-0.04828 0-0.31529 0.07752-0.59334 0.17226-0.27805 0.09474-0.52933 0.14846-0.5584 0.11939-0.02908-0.02908 0.32205-0.31566 0.78029-0.63687 0.91446-0.64101 1.5492-1.2849 1.814-1.8404l0.17175-0.36015 1.151-0.03575c0.63305-0.01966 1.1842-0.06908 1.2248-0.10982 0.04059-0.04074-0.08773-0.48899-0.28515-0.9961-0.41375-1.0628-0.40913-1.0596-2.1464-1.5-0.5772-0.14631-1.3146-0.36522-1.6386-0.48646l-0.58915-0.22044-0.93012 0.52831c-0.51156 0.29057-1.0503 0.56221-1.1972 0.60365l-0.26707 0.07535 0.22355-0.19364c0.96759-0.83815 1.9094-1.5288 2.228-1.634 0.52816-0.17431 0.90749-0.06907 2.1669 0.60117 1.2398 0.65982 2.0095 0.83499 2.2731 0.51735 0.26378-0.31783 0.18776-0.92034-0.1905-1.5098-0.18962-0.29549-0.34476-0.56792-0.34476-0.60539 0-0.10199 0.4677 0.09562 0.95625 0.40403l0.4325 0.27303v1.3703c0 1.7508 0.17734 2.4575 1.1639 4.6379 0.41519 0.91767 0.85196 2.0188 0.9706 2.4469 0.22965 0.82873 0.27782 1.9884 0.11224 2.7026-0.0541 0.23337-0.08111 0.44157-0.06001 0.46267 0.08303 0.08303 0.53497-0.24022 1.2386-0.88593 0.45442-0.41702 0.80953-0.66202 0.92598-0.63885 0.10388 0.02068 0.54015 0.11839 0.96948 0.21716 0.45006 0.10354 1.0063 0.15789 1.3136 0.12836 0.62359-0.05991 0.88709-0.27393 1.7635-1.4323 0.31755-0.4197 0.90146-1.029 1.2976-1.354 1.6127-1.3232 1.7097-1.5196 1.8481-3.743 0.05538-0.88979 0.12598-1.7692 0.15689-1.9541 0.08514-0.50956 0.41793-0.85373 1.2864-1.3304 0.91195-0.50051 1.2925-0.9017 1.386-1.4611 0.11939-0.71463 0.37318-1.5191 0.47922-1.5191 0.15306 0 0.12387 1.0369-0.04729 1.6798-0.1987 0.74637-0.50298 1.2225-1.339 2.0954l-0.69981 0.73062 0.0078 0.6837c0.0043 0.37604 0.03916 0.7151 0.07754 0.75348 0.119 0.11901 0.34542-0.14453 0.66238-0.771l0.30436-0.60156 0.43542 0.06441c0.23948 0.03543 0.96944 0.0957 1.6221 0.13393l1.1867 0.06952 0.46913-0.32411c0.25803-0.17826 1.07-0.86095 1.8045-1.5171 1.8062-1.6137 3.0611-2.2188 4.401-2.1222l0.4596 0.03312-0.27523 0.18708c-0.15138 0.10289-0.72637 0.28349-1.2778 0.40132-0.58534 0.12509-1.1677 0.32355-1.3995 0.47692-0.21831 0.14447-0.85498 0.78582-1.4148 1.4252s-1.1282 1.237-1.2631 1.3281l-0.24517 0.16551 0.28556 0.30473c0.15706 0.1676 0.63124 0.85756 1.0537 1.5332 0.97377 1.5573 1.3929 2.0709 1.9523 2.3925 1.0991 0.63188 1.7343 0.47919 2.8777-0.69173 0.45535-0.46633 0.82791-0.81816 0.82791-0.78186 0 0.0363-0.15035 0.34809-0.33411 0.69286-0.39862 0.74789-0.9581 1.3499-1.4427 1.5524-0.76799 0.32089-2.6977 0.07078-3.2303-0.41866-0.14068-0.1293-0.56125-0.86588-0.93459-1.6368-0.49106-1.014-0.79748-1.509-1.1079-1.7894l-0.42904-0.38762h-1.5399c-0.84697 0-1.6063-0.02547-1.6875-0.0566-0.09193-0.03528-0.23334 0.09554-0.3753 0.34719-0.12528 0.22209-0.71423 1.0714-1.3088 1.8875-1.2218 1.677-1.4975 2.1602-1.4975 2.6246 0 0.46883 0.61901 1.1005 1.5204 1.5514 0.6528 0.32658 0.85161 0.37554 1.5118 0.37228 0.41808-0.0021 1.0722-0.07063 1.4535-0.15236 0.38135-0.08173 0.69574-0.14014 0.69866-0.12978 0.0029 0.01036 0.27162 0.35533 0.59712 0.76662 1.1433 1.4447 1.4355 2.092 1.3528 2.9979l-0.03838 0.42062-0.13158-0.30617c-0.07237-0.16839-0.28207-0.66767-0.466-1.1095-0.18393-0.44183-0.47857-0.9675-0.65475-1.1682-0.6221-0.70853-1.0779-0.79516-2.7456-0.52188-0.49942 0.08183-1.0317 0.1251-1.1828 0.09614-0.24825-0.04756-0.30636 0.01264-0.60207 0.62385-0.28423 0.58746-0.39786 0.96633-0.62409 2.0808-0.02777 0.13681-0.22982 0.32365-0.50131 0.46359-0.58009 0.299-0.93933 0.63506-1.589 1.4864-0.2869 0.37598-0.52163 0.6414-0.52163 0.58982 0-0.05158 0.12563-0.42255 0.27918-0.82438 0.21407-0.5602 0.34482-0.75556 0.56065-0.83761 0.70572-0.26832 1.0034-0.8398 1.3636-2.618l0.27195-1.3424-0.30296-0.31648c-0.16663-0.17407-0.55464-0.46056-0.86226-0.63665-0.55668-0.31866-0.56083-0.31925-0.8881-0.12626-0.18085 0.10665-0.645 0.59277-1.0315 1.0803-0.38646 0.4875-0.85211 0.96652-1.0348 1.0645-0.25108 0.13465-0.7402 0.19345-2.0043 0.24098-1.9295 0.07254-2.0406 0.1175-3.1603 1.2788-0.85589 0.88771-1.3317 1.7265-1.8059 3.1838-0.34161 1.0497-0.40701 1.3968-0.40686 2.1588 2.11e-4 0.86421 0.02997 0.97931 0.61766 2.3852 0.33961 0.81241 0.6456 1.7146 0.67998 2.0048 0.05199 0.43901 0.10462 0.53822 0.31332 0.5906 0.23954 0.06012 0.70895 0.52866 0.95702 0.95524 0.10585 0.18203 0.26952 0.20036 1.8161 0.20344 1.0799 0.0022 1.863-0.04621 2.1475-0.1326 0.24629-0.07479 0.84719-0.45159 1.3353-0.83734 1.2782-1.0101 1.3095-1.0217 2.9109-1.0824 1.3007-0.0493 1.4385-0.07539 2.0361-0.38542 0.82056-0.42573 2.2601-1.8566 3.0732-3.0546 0.59281-0.87346 0.61223-0.89048 0.60978-0.53414-0.0034 0.48756-0.41144 1.46-0.83084 1.9798-0.18546 0.22987-0.72071 0.73042-1.1895 1.1123-0.98503 0.80254-1.0801 0.68912 0.90115 1.0746 1.3346 0.25968 1.3173 0.25284 1.4377 0.56957 0.04907 0.12908 0.38196 0.70995 0.73974 1.2908 0.35778 0.58087 0.63125 1.0754 0.60771 1.0989-0.10323 0.10323-0.48857-0.22205-0.90975-0.76798-0.64908-0.84132-1.2057-1.3112-1.7359-1.4653-0.70957-0.20624-3.8078-0.17478-4.7074 0.04779-1.0064 0.24898-2.0588 0.80106-1.8759 0.98403 0.02242 0.02242 0.47548 0.08437 1.0068 0.13766l0.96604 0.0969 0.49096 0.52488c0.27003 0.28868 0.83036 0.81242 1.2452 1.1639 0.56033 0.47472 0.75462 0.70765 0.75575 0.90606 8.45e-4 0.14689 0.12779 0.92625 0.28212 1.7319 0.35515 1.8541 0.27399 2.1696-0.24065 0.93541-0.20749-0.49757-0.45801-1.1335-0.55672-1.4132-0.14796-0.41926-0.41845-0.73136-1.5409-1.7779l-1.3614-1.2694-0.39977 0.09465c-0.21987 0.05206-1.3372 0.21723-2.4829 0.36705-2.4575 0.32136-3.4572 0.51631-4.1329 0.80595-0.59004 0.25292-0.64708 0.32203-1.2058 1.461-0.46879 0.95554-0.74632 1.9477-0.74882 2.677-0.0019 0.56714-0.09553 0.75158-0.80861 1.5935-0.71805 0.84778-0.84391 1.2134-0.69499 2.0189 0.14337 0.77557 0.14369 1.5814 8.46e-4 2.0958l-0.11125 0.4006h-6.574l0.50455-0.52346z" fill="#fff" stroke-width=".10683"/>
 </g>
</svg>
