<svg width="334.47" height="111.08" version="1.1" viewBox="0 0 359.56 119.41" xmlns="http://www.w3.org/2000/svg">
 <defs>
  <filter id="editing-jagged" x="0" y="0" width="1" height="1">
   <feTurbulence baseFrequency="0" result="turb" seed="1"/>
   <feDisplacementMap in="SourceGraphic" in2="turb"/>
  </filter>
 </defs>
 <g transform="translate(-126.17 -7.2525)"></g>
 <g transform="matrix(1.32 0 0 1.3233 -151 -25.456)">
  <rect x="130.28" y="52.772" width="263.54" height="44.083" rx="14.484" ry="22.042" fill="none" stroke-width=".79031"/>
  <circle transform="translate(-3.951e-6)" cx="158.19" cy="73.719" r="35.752"/>
  <g transform="translate(84.698)" fill="#6f7c91">
   <path d="m68.471 102.36c0.52232-0.54189 1.1964-1.5747 1.732-2.6537l0.87686-1.7666 0.01234-2.9138c0.0115-2.7106 0.04472-2.9895 0.47709-4 1.0594-2.4763 1.4758-3.3167 2.1903-4.421 0.6505-1.0053 0.76093-1.3227 0.81905-2.3537 0.17116-3.0364-1.9894-8.4196-4.4427-11.07-1.7614-1.9025-3.4751-2.8314-4.8086-2.6064-0.37568 0.06338-1.5571 0.64615-2.6253 1.295-1.0682 0.64888-3.1662 1.772-4.6622 2.4959-4.0761 1.9724-4.663 2.8203-4.9075 7.0896-0.15652 2.7334-0.38553 2.4152-0.40935-0.5689-0.0204-2.5553 0.54037-4.657 1.6029-6.0079 0.20267-0.25766 0.36849-0.53009 0.36849-0.60544 0-0.16201-0.97247-0.56975-3.0506-1.279l-1.5115-0.5159-0.71386 0.36418c-1.0216 0.52118-1.8925 1.4581-3.2792 3.5278-0.66806 0.99712-1.5015 2.0909-1.8519 2.4306l-0.63726 0.61765-0.01805 2.0919c-0.01 1.1505-0.08329 2.2955-0.16301 2.5445-0.14237 0.44454-0.14534 0.44292-0.16508-0.09051-0.01108-0.29875-0.2636-1.3508-0.56121-2.338-0.29761-0.98711-0.5411-1.9406-0.5411-2.1189 0-0.55384 0.37162-1.174 0.88536-1.4775 0.73984-0.43704 1.4683-1.2257 1.4683-1.5895 0-0.4998-1.2332-0.66928-3.3883-0.46565-1.3823 0.13062-2.0383 0.11812-2.5977-0.04946-0.41158-0.12331-0.70176-0.27075-0.64486-0.32765 0.05689-0.05689 1.1008-0.25555 2.3199-0.44144 4.4967-0.68571 6.5884-1.5175 7.7428-3.0786l0.393-0.53156-1.4015-1.4857c-1.9623-2.0801-3.7147-4.4966-6.8592-9.4583-1.7848-2.8163-2.8595-4.341-3.135-4.4481-0.88256-0.34302-2.5045-0.17363-4.5857 0.4789-1.1259 0.35299-2.2521 0.61778-2.5029 0.58843-0.39081-0.04574-0.26957-0.16567 0.84925-0.83992 2.2807-1.3744 4.7793-1.8505 6.3243-1.205 0.35749 0.14936 0.68359 0.27158 0.72464 0.27158 0.04106 0 0.02326-0.38743-0.03956-0.86093-0.14499-1.0931 0.1764-3.8836 0.75585-6.5623 0.5733-2.6504 0.58658-2.6899 0.79212-2.3573 0.41564 0.67252 0.38615 1.9955-0.09717 4.3589-0.77019 3.766-0.54389 5.0472 1.5875 8.9887 1.504 2.7814 1.7367 2.8208 1.4904 0.25196-0.08209-0.8557-0.15438-2.0854-0.16068-2.7327-0.01388-1.4339 0.34417-2.0025 1.8367-2.9161 0.55207-0.33794 1.5206-0.95175 2.1522-1.364 1.0813-0.70579 1.1337-0.72168 0.89576-0.27158-0.13897 0.26293-0.87573 1.0892-1.6372 1.836-0.76146 0.74685-1.5007 1.5779-1.6428 1.8468-0.52481 0.99333-0.07708 4.9304 0.78142 6.8711 0.30106 0.68061 3.9197 5.4044 4.1399 5.4044 0.18065 0-0.5309-1.4089-0.97785-1.9362-0.2696-0.31805-0.8038-0.94743-1.1872-1.3986-0.76404-0.89917-0.94325-1.4726-1.1306-3.6172-0.08437-0.96579-0.06432-1.3923 0.0618-1.3143 0.10267 0.06345 0.23858 0.32207 0.30197 0.5747 0.26204 1.0441 1.1853 2.6449 2.9645 5.14 1.0362 1.4531 2.0776 3.022 2.3141 3.4864 0.34352 0.67426 0.6248 0.93954 1.3966 1.3171 2.0548 1.0053 3.7441 0.82246 7.7337-0.83726 1.4439-0.60061 3.0123-1.2085 3.4853-1.3509 0.47301-0.14238 0.86002-0.29917 0.86002-0.34841 0-0.04923-0.19257-0.47383-0.42792-0.94356-0.23534-0.4697-0.53234-1.1799-0.65998-1.5782-0.40529-1.2648-1.2555-2.869-1.8402-3.4723-0.31106-0.32093-1.1034-0.806-1.7609-1.0779-1.4744-0.60976-1.9198-0.99257-2.5005-2.1489-0.25008-0.4979-0.62285-1.0886-0.82838-1.3127l-0.3737-0.40737h0.44391c0.59013 0 1.0714 0.35839 1.7007 1.2664 0.509 0.7345 1.2603 1.2684 1.7848 1.2684 0.19914 0 0.13969-0.23125-0.24441-0.95054-0.27916-0.5228-0.88293-1.9939-1.3417-3.2691-0.45877-1.2752-1.0169-2.6955-1.2403-3.1563-0.37862-0.78096-0.47985-0.85782-1.4925-1.1334-1.4591-0.39699-1.9741-0.69252-3.2919-1.889l-1.1193-1.0162-1.7776-0.10821c-1.128-0.06868-2.0691-0.23341-2.5751-0.45079-0.43861-0.18842-0.7645-0.37251-0.72422-0.40911 0.04029-0.0366 1.2796-0.16237 2.754-0.27949l2.6807-0.21295 1.1027 1.0209c1.5623 1.4464 2.3031 1.8902 3.3653 2.016 0.90069 0.10668 0.92808 0.09609 1.0697-0.41252 0.0799-0.2871 0.14254-1.2552 0.13917-2.1515-0.0056-1.4769-0.06271-1.7433-0.61003-2.845l-0.60392-1.2156 0.40405-1.5003c0.43332-1.609 0.98741-2.8582 1.2678-2.8582 0.18609 0 0.10981 0.57821-0.29012 2.1988-0.45657 1.8501-0.3383 2.482 0.76503 4.0879 0.44682 0.65031 0.46302 0.7552 0.32937 2.1324-0.25267 2.6038-0.22253 2.8669 0.41107 3.5885 0.48329 0.55043 0.59231 0.85092 0.69802 1.9237 0.06889 0.69924 0.22284 1.4048 0.34208 1.5678 0.18468 0.25255 0.26848 0.13892 0.56533-0.76647 0.27347-0.83407 0.34328-1.5308 0.32416-3.2356-0.02415-2.1537-0.09865-2.6329-1.2528-8.057-0.66454-3.123-0.67006-5.3964-0.01935-7.9667 0.26474-1.0456 0.48144-2.181 0.48157-2.5233 1.35e-4 -0.36119-0.35012-1.3717-0.83491-2.4087-0.45932-0.98263-0.7956-1.826-0.74734-1.8744 0.15861-0.1586 1.726 1.7261 2.1306 2.5619 0.32736 0.67623 0.38402 1.0555 0.32684 2.1879-0.06462 1.2799-0.05108 1.3419 0.20634 0.94371 0.34638-0.53571 1.4206-1.7345 3.6267-4.0472 2.9178-3.0587 3.9461-5.0364 4.1189-7.9212 0.05221-0.87132 0.1556-1.5842 0.22975-1.5842 0.26721 0 0.35321 0.86139 0.35564 3.5619 0.0028 3.1333 0.22512 2.5953-2.1944 5.3097-2.3124 2.5941-4.682 5.708-5.3596 7.0431-0.66778 1.3156-0.6814 1.3831-0.67653 3.3509 0.0052 2.1182 0.1494 2.8274 1.448 7.1243 0.9173 3.0352 1.0791 4.5974 0.71715 6.9241-0.55172 3.5466-0.55167 3.955 5.4e-4 5.2595 0.27194 0.64236 0.77383 1.9012 1.1153 2.7974 1.2896 3.3847 1.3867 3.5072 3.4374 4.3374 0.68363 0.27674 1.8304 0.78157 2.5483 1.1219 1.2052 0.57123 1.3496 0.70158 1.881 1.6987 0.37232 0.69855 0.68935 1.0801 0.89758 1.0801 0.39487 0 3.8566-4.5042 4.9075-6.3852 0.40235-0.72026 1.1511-1.9563 1.6638-2.7468 0.88271-1.3609 0.93559-1.5101 0.99439-2.8063 0.07209-1.5868-0.18598-2.7645-1.2819-5.8501l-0.75553-2.1274h-4.4522l-0.6833 0.6833c-1.2242 1.2242-1.4966 2.9619-1.0373 6.6185 0.1723 1.3719 0.27487 2.5328 0.22794 2.5798-0.14028 0.14028-1.9426-2.7155-2.1332-3.3801-0.17725-0.61805-0.22741-2.2632-0.05603-1.8382 0.05044 0.12509 0.16622 0.1814 0.25729 0.12511 0.20573-0.12715 0.22128-1.7105 0.01678-1.7105-0.08183 0-0.53437 0.13139-1.0056 0.29195-0.47125 0.16057-0.89712 0.25162-0.94644 0.20234-0.04927-0.04928 0.54582-0.535 1.3225-1.0794 1.5499-1.0864 2.6256-2.1777 3.0745-3.1191l0.29108-0.6104 1.9508-0.06059c1.0729-0.03332 2.0071-0.11707 2.0758-0.18613 0.06879-0.06905-0.14869-0.82876-0.48328-1.6883-0.70125-1.8013-0.69341-1.7958-3.6379-2.5422-0.97823-0.24798-2.228-0.61898-2.7772-0.82444l-0.99848-0.3736-1.5764 0.89538c-0.867 0.49247-1.7801 0.95289-2.029 1.0231l-0.45264 0.12772 0.37888-0.3282c1.6399-1.4205 3.2361-2.5911 3.7761-2.7694 0.89515-0.29542 1.538-0.11706 3.6725 1.0189 2.1013 1.1183 3.4057 1.4152 3.8525 0.87687 0.44706-0.53868 0.31821-1.5598-0.32287-2.5589-0.32137-0.50081-0.5843-0.96253-0.5843-1.026 0-0.17285 0.79265 0.16206 1.6207 0.68477l0.73302 0.46274v2.3225c0 2.9673 0.30056 4.165 1.9726 7.8604 0.70368 1.5553 1.4439 3.4215 1.645 4.1471 0.38923 1.4046 0.47085 3.3701 0.19022 4.5805-0.09168 0.39553-0.13746 0.74839-0.1017 0.78415 0.14072 0.14072 0.90668-0.40713 2.0992-1.5015 0.77019-0.70678 1.372-1.122 1.5694-1.0828 0.17606 0.03506 0.91548 0.20066 1.6431 0.36806 0.76275 0.17547 1.7055 0.2676 2.2264 0.21755 1.0569-0.10154 1.5035-0.46426 2.9889-2.4275 0.5382-0.71132 1.5278-1.744 2.1992-2.2949 2.7333-2.2427 2.8977-2.5754 3.1322-6.3437 0.0938-1.5081 0.2135-2.9984 0.2659-3.3119 0.14429-0.86359 0.70833-1.4469 2.1802-2.2547 1.5456-0.84826 2.1906-1.5282 2.349-2.4763 0.20234-1.2112 0.63248-2.5747 0.81223-2.5747 0.25941 0 0.20993 1.7574-0.0801 2.8471-0.33677 1.265-0.85251 2.072-2.2694 3.5513l-1.186 1.2382 0.0132 1.1587c8e-3 0.63732 0.0664 1.212 0.13142 1.277 0.2017 0.20169 0.58542-0.24496 1.1226-1.3067l0.51584-1.0196 0.73798 0.10916c0.40589 0.06004 1.643 0.16219 2.7492 0.227l2.0112 0.11783 0.79507-0.54932c0.43732-0.30213 1.8135-1.4592 3.0583-2.5712 3.0612-2.7348 5.1881-3.7604 7.4591-3.5968l0.7789 0.05615-0.46646 0.31707c-0.25655 0.17439-1.231 0.48047-2.1656 0.68017-0.99205 0.212-1.9791 0.54836-2.3719 0.80828-0.37001 0.24486-1.449 1.3319-2.3979 2.4155-0.94888 1.0837-1.9122 2.0965-2.1407 2.2508l-0.41552 0.28051 0.48397 0.51647c0.2662 0.28406 1.0699 1.4534 1.7859 2.5986 1.6504 2.6394 2.3607 3.5099 3.3088 4.055 1.8628 1.0709 2.9394 0.81214 4.8772-1.1724 0.77178-0.79037 1.4032-1.3867 1.4032-1.3251 0 0.06153-0.25483 0.58995-0.56626 1.1743-0.67561 1.2675-1.6238 2.2879-2.4451 2.6311-1.3016 0.54385-4.5722 0.11996-5.4748-0.70956-0.23845-0.21914-0.95123-1.4675-1.584-2.7741-0.83226-1.7186-1.3516-2.5575-1.8776-3.0326l-0.72716-0.65695h-2.61c-1.4355 0-2.7225-0.04317-2.86-0.09594-0.1558-0.05979-0.39547 0.16193-0.63607 0.58843-0.21233 0.3764-1.2105 1.8159-2.2182 3.199-2.0708 2.8423-2.5381 3.6612-2.5381 4.4483 0 0.79462 1.0491 1.8651 2.5769 2.6294 1.1064 0.5535 1.4433 0.63648 2.5622 0.63095 0.70857-0.0036 1.8172-0.11971 2.4634-0.25823 0.64632-0.13853 1.1791-0.2375 1.1841-0.21996 6e-3 0.01756 0.46033 0.60223 1.012 1.2992 1.9378 2.4484 2.433 3.5457 2.2928 5.0809l-0.065 0.71287-0.223-0.51891c-0.12266-0.2854-0.47806-1.1316-0.78977-1.8804-0.31173-0.74884-0.81108-1.6398-1.1097-1.9798-1.0543-1.2008-1.8268-1.3477-4.6534-0.88453-0.84644 0.13869-1.7485 0.21202-2.0046 0.16295-0.42074-0.0806-0.51923 0.02143-1.0204 1.0573-0.48171 0.99568-0.6743 1.6378-1.0577 3.5266-0.0471 0.23187-0.3895 0.54853-0.84963 0.78574-0.98317 0.50676-1.592 1.0763-2.693 2.5192-0.48626 0.63723-0.88408 1.087-0.88408 0.99963 0-0.08743 0.21292-0.71616 0.47316-1.3972 0.36281-0.94948 0.58442-1.2805 0.95023-1.4196 1.1961-0.45475 1.7006-1.4233 2.3111-4.4371l0.46092-2.2752-0.51347-0.53638c-0.28242-0.29502-0.94007-0.78058-1.4614-1.079-0.94348-0.54008-0.95054-0.54108-1.5052-0.21399-0.30652 0.18075-1.0932 1.0046-1.7482 1.8309-0.65499 0.82626-1.4442 1.6381-1.7538 1.8041-0.42554 0.2282-1.2546 0.32787-3.397 0.40841-3.2701 0.12295-3.4585 0.19914-5.3562 2.1674-1.4506 1.5046-2.257 2.9261-3.0607 5.396-0.57897 1.7791-0.68982 2.3673-0.68956 3.6589 3.58e-4 1.4647 0.05079 1.6598 1.0468 4.0424 0.57559 1.3769 1.0942 2.9059 1.1524 3.3977 0.08811 0.74406 0.17732 0.91222 0.53102 1.001 0.40598 0.1019 1.2015 0.89598 1.622 1.619 0.1794 0.30851 0.45679 0.33958 3.0779 0.34479 1.8302 0.0038 3.1575-0.07831 3.6397-0.22474 0.41741-0.12676 1.4358-0.76541 2.2632-1.4191 2.1663-1.7119 2.2194-1.7316 4.9335-1.8345 2.2045-0.08356 2.438-0.12777 3.4509-0.65322 1.3908-0.72154 3.8305-3.1466 5.2086-5.1771 1.0047-1.4804 1.0376-1.5092 1.0335-0.90524-6e-3 0.82633-0.69731 2.4744-1.4081 3.3555-0.31432 0.3896-1.2215 1.2379-2.016 1.8852-1.6694 1.3602-1.8307 1.1679 1.5273 1.8213 2.2619 0.44011 2.2326 0.42852 2.4367 0.96533 0.0831 0.21877 0.64736 1.2033 1.2537 2.1877 0.60639 0.98445 1.0699 1.8226 1.03 1.8625-0.17498 0.17496-0.82808-0.37634-1.5419-1.3016-1.1001-1.4259-2.0435-2.2223-2.942-2.4834-1.2026-0.34954-6.4535-0.29623-7.9781 0.08101-1.7057 0.42198-3.4894 1.3577-3.1793 1.6678 0.038 0.038 0.80585 0.14299 1.7064 0.23331l1.6373 0.16422 0.83209 0.88961c0.45766 0.48927 1.4073 1.3769 2.1104 1.9726 0.94962 0.80456 1.2789 1.1993 1.2809 1.5356 9.4e-4 0.24895 0.21659 1.5698 0.47815 2.9353 0.60193 3.1424 0.46437 3.677-0.40786 1.5854-0.35166-0.84333-0.77627-1.9211-0.94356-2.3952-0.25077-0.71058-0.7092-1.2395-2.6115-3.0133l-2.3074-2.1515-0.67754 0.16042c-0.37265 0.08824-2.2663 0.36817-4.2082 0.6221-4.165 0.54466-5.8594 0.87504-7.0046 1.3659-1 0.42866-1.0967 0.54579-2.0437 2.476-0.79454 1.6195-1.2649 3.3011-1.2691 4.5371-0.0032 0.96123-0.16191 1.2738-1.3705 2.7007-1.217 1.4369-1.4303 2.0565-1.1779 3.4218 0.24299 1.3144 0.24353 2.6801 0.0014 3.552l-0.18856 0.67896h-11.142l0.85509-0.88717z" fill="#6f7c91" stroke="#000" stroke-width="1.139"/>
  </g>
  <g transform="matrix(.75819 0 0 .75819 130.85 17.759)" fill="#fff" stroke="#000" stroke-width="2.1799">
   <g transform="translate(-4.2966)" stroke="none">
    <path d="m266 52.204q23.936 0 23.936 22.812 0 22.812-23.936 22.812h-19.767v-45.624zm-5.109 10.943v23.74h4.8388q9.2232 0 9.2232-9.8803v-3.9791q0-9.8803-9.2232-9.8803zm67.314-10.943q3.451 0 6.331 1.4246 2.8861 1.4246 4.5809 4.0099 1.6887 2.5852 1.6887 5.7722 0 8.4189-7.6267 10.611v0.26406q8.689 1.9896 8.689 11.409 0 3.58-1.7562 6.331-1.7624 2.751-4.8081 4.28-3.0519 1.5229-6.6995 1.5229h-30.771v-45.624zm-15.719 10.009v7.7618h10.083q1.4615 0 2.4194-1.0255 0.96408-1.0316 0.96408-2.5545v-0.66319q0-1.4615-0.99479-2.487-0.99479-1.0316-2.3887-1.0316zm0 17.182v7.8232h11.145q1.4553 0 2.4194-1.0255 0.96408-1.0316 0.96408-2.5545v-0.66319q0-1.529-0.96408-2.5545-0.96407-1.0255-2.4194-1.0255z" fill="#6f7c91" stroke-width=".61406"/>
    <g transform="matrix(1.0452 0 0 1.0452 90.593 97.161)" fill="#535d6c" filter="url(#editing-jagged)">
     <path d="m3.46-7.55v-34.11q0.64-0.2 2.04-0.42 1.41-0.22 2.88-0.22 1.41 0 2.53 0.19t1.89 0.77q0.77 0.57 1.15 1.56 0.39 1 0.39 2.6v6.27q1.6-0.64 3.04-0.9 1.44-0.25 3.16-0.25 3.08 0 5.83 1.08 2.75 1.09 4.86 3.17t3.33 5.15q1.22 3.08 1.22 7.11 0 4.16-1.25 7.26-1.25 3.11-3.49 5.15-2.24 2.05-5.47 3.11-3.23 1.05-7.14 1.05-4.22 0-7.17-0.99-2.94-0.99-4.99-2.46-2.81-1.99-2.81-5.12zm14.97 0q2.95 0 4.58-2.02 1.63-2.01 1.63-5.98 0-4.03-1.66-6.02-1.67-1.98-4.48-1.98-1.28 0-2.21 0.25-0.93 0.26-2.02 0.77v13.95q0.71 0.45 1.7 0.74t2.46 0.29zm22.66-4.8v-18.31q0.64-0.19 2.01-0.38 1.38-0.19 2.85-0.19 1.41 0 2.53 0.19t1.89 0.77q0.77 0.57 1.18 1.57 0.42 0.99 0.42 2.59v13.76q0 2.62 1.28 3.74t3.71 1.12q1.47 0 2.4-0.25 0.93-0.26 1.44-0.52v-22.4q0.64-0.19 2.02-0.38 1.37-0.19 2.84-0.19 1.41 0 2.53 0.19t1.89 0.77q0.77 0.57 1.18 1.57 0.42 0.99 0.42 2.59v19.45q0 3.2-2.69 4.8-2.24 1.41-5.34 2.15-3.11 0.73-6.75 0.73-3.46 0-6.37-0.76-2.91-0.77-5.03-2.37-2.11-1.6-3.26-4.13t-1.15-6.11zm63.49 3.07q0 4.86-3.65 7.62-3.65 2.75-10.75 2.75-2.69 0-5-0.39-2.3-0.38-3.93-1.18t-2.56-2.02q-0.93-1.21-0.93-2.88 0-1.53 0.64-2.59 0.64-1.05 1.54-1.76 1.85 1.03 4.25 1.83t5.54 0.8q1.98 0 3.04-0.58 1.05-0.58 1.05-1.54 0-0.89-0.76-1.4-0.77-0.52-2.56-0.84l-1.92-0.38q-5.57-1.09-8.29-3.42-2.72-2.34-2.72-6.69 0-2.37 1.02-4.29 1.03-1.92 2.88-3.2 1.86-1.28 4.45-1.98 2.59-0.71 5.73-0.71 2.37 0 4.45 0.35 2.08 0.36 3.61 1.06 1.54 0.7 2.43 1.82 0.9 1.12 0.9 2.66 0 1.47-0.54 2.53-0.55 1.05-1.38 1.76-0.51-0.32-1.54-0.67-1.02-0.36-2.24-0.64-1.21-0.29-2.46-0.48-1.25-0.2-2.27-0.2-2.11 0-3.27 0.48-1.15 0.48-1.15 1.51 0 0.7 0.64 1.15t2.43 0.83l1.99 0.45q6.14 1.41 8.73 3.87 2.6 2.47 2.6 6.37zm35.96-10.18v19.4q-0.64 0.19-2.01 0.38-1.38 0.19-2.85 0.19-1.41 0-2.53-0.19t-1.89-0.77q-0.76-0.57-1.18-1.57-0.42-0.99-0.42-2.59v-14.21q0-2.62-1.31-3.68-1.31-1.05-3.23-1.05-1.28 0-2.43 0.32t-1.86 0.77v22.4q-0.64 0.19-2.01 0.38-1.38 0.19-2.85 0.19-1.41 0-2.53-0.19t-1.89-0.77q-0.77-0.57-1.18-1.57-0.42-0.99-0.42-2.59v-37.12q0.71-0.13 2.08-0.35 1.38-0.22 2.79-0.22 1.4 0 2.52 0.19t1.89 0.77q0.77 0.57 1.19 1.56 0.41 1 0.41 2.6v6.27q0.83-0.32 2.53-0.74 1.7-0.41 3.74-0.41 6.34 0 9.89 3.16 3.55 3.17 3.55 9.44z" fill="#535d6c"/>
    </g>
   </g>
  </g>
 </g>
</svg>
