<svg width="100" height="93.444" version="1.1" viewBox="0 0 107.5 100.46" xmlns="http://www.w3.org/2000/svg">
 <rect x="16.4" y="25.425" width="347.87" height="58.335" rx="19.119" ry="29.168" fill="none" stroke-width="1.0445"/>
 <g transform="translate(.00025457 .0010648)">
  <ellipse cx="53.241" cy="53.143" rx="47.193" ry="47.311" fill="#1a1a1a" stroke-width="1.3216"/>
  <path d="m43.09 87.412c-2.7745-0.34817-8.8349-1.6115-11.436-2.3841l-2.6012-0.77245 4.2897-3.0405c5.9995-4.2524 12.372-10.46 16.821-16.384 3.9686-5.2854 8.8926-13.969 8.0755-14.241-0.2624-0.08747-1.8491-0.97057-3.5257-1.9625-11.244-6.6516-19.49-18.44-23.096-33.022-1.0425-4.215-2.0983-12.104-1.5276-11.415 0.17003 0.20531 0.93457 2.0295 1.699 4.0538 4.235 11.215 10.847 20.834 18.085 26.311 3.0241 2.2882 8.7185 5.2591 11.224 5.856 1.2523 0.2983 1.3617 0.17595 2.0637-2.3077 1.1071-3.9167 2.1417-9.9255 2.5641-14.891 0.33146-3.897 0.41757-4.1857 0.73195-2.4537 1.396 7.6917 1.6516 25.329 0.48934 33.783l-0.39409 2.866 2.2443-0.33653c5.1827-0.77717 16.727-5.45 24.011-9.7188 1.6706-0.9791 3.0376-1.6093 3.0376-1.4003s-1.2273 1.8677-2.7273 3.6862c-5.4532 6.6109-15.297 12.975-24.369 15.755l-4.0672 1.2462-1.1502 3.8053c-1.4549 4.8134-3.9715 10.292-6.5377 14.233l-1.997 3.0671-5.218-0.07344c-2.8699-0.04036-5.8805-0.15664-6.6903-0.25828zm-20.629-17.851c-2.795-0.36027-8.3543-2.0339-9.0075-2.7118-0.51617-0.53568 4.962-5.094 7.7928-6.4843 2.3994-1.1784 3.2655-1.3283 7.6736-1.3283 4.8312 0 5.0751 0.05437 8.8008 1.963 2.1075 1.0796 3.8982 2.1838 3.9793 2.4537 0.26082 0.86819-4.6782 4.0706-7.8258 5.0743-3.7484 1.1952-7.5129 1.5361-11.413 1.0334zm15.956-14.832c-1.7606-0.60033-4.6588-2.1317-6.4405-3.4031-3.1236-2.229-7.2893-6.606-7.2893-7.6591 0-0.83103 5.2475-1.6727 9.2696-1.4866 6.372 0.2947 11.759 3.8528 15.36 10.144 1.8722 3.2721 1.6171 3.509-3.7712 3.502-2.7603-0.0033-4.8766-0.32928-7.1272-1.0966zm-28.249-5.6373c-3.0093-1.0762-6.8268-3.4644-8.7556-5.4775l-1.4139-1.4757 1.4253-0.55089c7.1782-2.7742 13.162-1.1235 17.755 4.8978 1.0897 1.4286 1.4714 2.3073 1.1445 2.6343-0.9495 0.94943-7.4723 0.93146-10.155-0.02797zm64.324-0.62036c-0.4638-0.7504 0.80202-5.7055 2.2455-8.79 1.8978-4.0553 4.2924-6.957 8.0309-9.7313 3.8222-2.8364 9.9817-5.8245 10.643-5.1631 0.32042 0.3204 0.31217 1.8885-0.02389 4.6079-0.99409 8.0369-4.9338 13.601-11.962 16.895-3.5541 1.6655-8.5048 2.8746-8.933 2.1817zm-62.589-12.66c-3.5214-2.237-5.7717-6.1814-6.5588-11.496-0.38301-2.5861-0.2506-2.6766 2.3359-1.5959 2.2198 0.92748 5.0618 3.4029 6.0084 5.2334 1.4049 2.7167 1.9182 9.2444 0.72684 9.2444-0.18178 0-1.3123-0.62372-2.5122-1.386zm36.572-12.315c-6.5603-3.7475-11.473-12.929-11.508-21.509-0.0092-2.5155 0.23257-2.5512 4.2904-0.63161 7.4404 3.5198 11.583 11.041 10.687 19.406-0.45407 4.24-0.61421 4.3661-3.4695 2.7351zm22.068-0.8201c-0.89406-5.9617 1.355-11.987 6.4619-17.313 3.529-3.6797 3.706-3.6456 4.6555 0.89729 1.4144 6.7679-1.4886 13.135-7.8687 17.258-1.2 0.77551-2.3459 1.41-2.5464 1.41-0.20057 0-0.51664-1.0137-0.70241-2.2527zm30.456 0.16697c-1.3766-3.3941-1.4901-7.4964-0.30423-10.997 0.56308-1.6623 1.508-3.8429 2.0998-4.8459 1.0166-1.7229 1.114-1.7728 1.7659-0.90358 2.7791 3.7054 3.6391 8.0226 2.3632 11.864-0.8083 2.4335-3.8433 6.968-4.6638 6.968-0.22821 0-0.79563-0.93854-1.2609-2.0857z" fill="#5fbcd3" stroke-width=".49074"/>
 </g>
</svg>
