<svg version="1.1" viewBox="0 0 331.99 54.612" xmlns="http://www.w3.org/2000/svg">
 <defs>
  <filter id="editing-jagged" x="0" y="0" width="1" height="1">
   <feTurbulence baseFrequency="0" result="turb" seed="1"/>
   <feDisplacementMap in="SourceGraphic" in2="turb"/>
  </filter>
 </defs>
 <rect transform="matrix(.43776 .89909 -.9354 .3536 0 0)" x="24.061" y="-33.992" width="25.899" height="27.704" fill="#fff" stroke-width="1.0676"/>
 <g transform="translate(.55)">
  <g transform="translate(0 .56794)" stroke="#fff" stroke-width="1.1">
   <rect x="4.7182e-16" y="4.2947" width="330.89" height="44.923" rx="6.3821" ry="5.8912" stroke="#fff" stroke-width="1.1"/>
  </g>
  <g transform="translate(17.282 -14.667)">
   <path d="m193.03 26.678q15.274 0 15.274 14.557t-15.274 14.557h-12.614v-29.114zm-3.2602 6.9828v15.149h3.0878q5.8856 0 5.8856-6.3049v-2.5392q0-6.3049-5.8856-6.3049zm42.955-6.9828q2.2022 0 4.04 0.90909 1.8417 0.90909 2.9232 2.5588 1.0776 1.6497 1.0776 3.6834 0 5.3723-4.8668 6.7712v0.1685q5.5447 1.2696 5.5447 7.2806 0 2.2845-1.1207 4.04-1.1246 1.7555-3.0682 2.7312-1.9475 0.97179-4.2751 0.97179h-19.636v-29.114zm-10.031 6.3872v4.953h6.4342q0.93261 0 1.5439-0.65439 0.61521-0.65831 0.61521-1.6301v-0.4232q0-0.9326-0.6348-1.587-0.6348-0.65831-1.5243-0.65831zm0 10.964v4.9922h7.1121q0.92868 0 1.5439-0.65439 0.61521-0.65831 0.61521-1.6301v-0.4232q0-0.97571-0.61521-1.6301-0.6152-0.65439-1.5439-0.65439z" fill="#a00" stroke-width=".39185"/>
   <g transform="matrix(.62581 0 0 .62581 -24.167 -5.1202)" fill="#fff" filter="url(#editing-jagged)">
    <g transform="translate(178,96.695)" fill="#fff">
     <path d="m3.46-7.55v-34.11q0.64-0.2 2.04-0.42 1.41-0.22 2.88-0.22 1.41 0 2.53 0.19t1.89 0.77q0.77 0.57 1.15 1.56 0.39 1 0.39 2.6v6.27q1.6-0.64 3.04-0.9 1.44-0.25 3.16-0.25 3.08 0 5.83 1.08 2.75 1.09 4.86 3.17t3.33 5.15q1.22 3.08 1.22 7.11 0 4.16-1.25 7.26-1.25 3.11-3.49 5.15-2.24 2.05-5.47 3.11-3.23 1.05-7.14 1.05-4.22 0-7.17-0.99-2.94-0.99-4.99-2.46-2.81-1.99-2.81-5.12zm14.97 0q2.95 0 4.58-2.02 1.63-2.01 1.63-5.98 0-4.03-1.66-6.02-1.67-1.98-4.48-1.98-1.28 0-2.21 0.25-0.93 0.26-2.02 0.77v13.95q0.71 0.45 1.7 0.74t2.46 0.29zm22.66-4.8v-18.31q0.64-0.19 2.01-0.38 1.38-0.19 2.85-0.19 1.41 0 2.53 0.19t1.89 0.77q0.77 0.57 1.18 1.57 0.42 0.99 0.42 2.59v13.76q0 2.62 1.28 3.74t3.71 1.12q1.47 0 2.4-0.25 0.93-0.26 1.44-0.52v-22.4q0.64-0.19 2.02-0.38 1.37-0.19 2.84-0.19 1.41 0 2.53 0.19t1.89 0.77q0.77 0.57 1.18 1.57 0.42 0.99 0.42 2.59v19.45q0 3.2-2.69 4.8-2.24 1.41-5.34 2.15-3.11 0.73-6.75 0.73-3.46 0-6.37-0.76-2.91-0.77-5.03-2.37-2.11-1.6-3.26-4.13t-1.15-6.11zm63.49 3.07q0 4.86-3.65 7.62-3.65 2.75-10.75 2.75-2.69 0-5-0.39-2.3-0.38-3.93-1.18t-2.56-2.02q-0.93-1.21-0.93-2.88 0-1.53 0.64-2.59 0.64-1.05 1.54-1.76 1.85 1.03 4.25 1.83t5.54 0.8q1.98 0 3.04-0.58 1.05-0.58 1.05-1.54 0-0.89-0.76-1.4-0.77-0.52-2.56-0.84l-1.92-0.38q-5.57-1.09-8.29-3.42-2.72-2.34-2.72-6.69 0-2.37 1.02-4.29 1.03-1.92 2.88-3.2 1.86-1.28 4.45-1.98 2.59-0.71 5.73-0.71 2.37 0 4.45 0.35 2.08 0.36 3.61 1.06 1.54 0.7 2.43 1.82 0.9 1.12 0.9 2.66 0 1.47-0.54 2.53-0.55 1.05-1.38 1.76-0.51-0.32-1.54-0.67-1.02-0.36-2.24-0.64-1.21-0.29-2.46-0.48-1.25-0.2-2.27-0.2-2.11 0-3.27 0.48-1.15 0.48-1.15 1.51 0 0.7 0.64 1.15t2.43 0.83l1.99 0.45q6.14 1.41 8.73 3.87 2.6 2.47 2.6 6.37zm35.96-10.18v19.4q-0.64 0.19-2.01 0.38-1.38 0.19-2.85 0.19-1.41 0-2.53-0.19t-1.89-0.77q-0.76-0.57-1.18-1.57-0.42-0.99-0.42-2.59v-14.21q0-2.62-1.31-3.68-1.31-1.05-3.23-1.05-1.28 0-2.43 0.32t-1.86 0.77v22.4q-0.64 0.19-2.01 0.38-1.38 0.19-2.85 0.19-1.41 0-2.53-0.19t-1.89-0.77q-0.77-0.57-1.18-1.57-0.42-0.99-0.42-2.59v-37.12q0.71-0.13 2.08-0.35 1.38-0.22 2.79-0.22 1.4 0 2.52 0.19t1.89 0.77q0.77 0.57 1.19 1.56 0.41 1 0.41 2.6v6.27q0.83-0.32 2.53-0.74 1.7-0.41 3.74-0.41 6.34 0 9.89 3.16 3.55 3.17 3.55 9.44z" fill="#fff"/>
    </g>
   </g>
  </g>
  <g transform="matrix(3.7795 0 0 3.7795 7.9206 -1052.5)" stroke="#fff" stroke-width=".29104">
   <path d="m5.5987 278.63c-0.91905 0-1.6565 0.7395-1.6565 1.6585v3.516c1.0255 1e-3 2.1575 0.0513 3.0994 0.29206 0.67777 0.15343 1.3533 0.64195 1.3533 1.0355v2.7496h10.4c0.19556 7.5e-4 0.35389 0.1591 0.35466 0.35466 7.84e-4 0.19664-0.15802 0.35667-0.35466 0.35744h-10.4v2.1342h9.9846c0.91168 0 1.6432-0.73364 1.6432-1.6453v-6.397c0-0.76006-0.60988-1.3672-1.3699-1.3672h-7.4693c-0.62733 0-1.1944-0.38301-1.4298-0.96452l-0.48887-1.2038c-0.12732-0.31455-0.43047-0.52016-0.76981-0.52016zm4.6376 1.0194 0.17733 0.43672c0.12732 0.31455 0.43046 0.52016 0.76981 0.52016h7.4693c1.1449 0 2.082 0.93435 2.082 2.0793v6.397c0 0.63699-0.25599 1.2164-0.66967 1.6418 0.86437-0.0515 1.5424-0.76388 1.5424-1.6418v-7.7906c0-0.9117-0.73155-1.6426-1.6432-1.6426zm-5.9102 4.8623c-1.0233 0-2.3971 0.0945-3.3345 0.621 0.85128 0.50131 2.3905 0.61961 3.3345 0.61961 0.94394 0 2.5864-0.10712 3.3352-0.61961-0.96301-0.57127-2.3118-0.621-3.3352-0.621zm-3.356 1.4353v1.5097c0.94792 0.50581 2.8586 0.64256 3.356 0.64256s2.4168 0.0223 3.3567-0.64256v-1.5097c-1.0687 0.41936-2.2624 0.51808-3.3567 0.51808s-2.3208-0.1203-3.356-0.51808zm0 2.3442v1.5097c0.90435 0.58231 2.8542 0.64325 3.356 0.64325 0.50182 0 2.4169 0.0217 3.3567-0.64325v-1.5097c-1.0317 0.39692-2.7323 0.52086-3.3567 0.52086-0.62438 0-2.3288-0.12609-3.356-0.52086zm0 2.3449v1.5118c0.96629 0.61461 2.7759 0.64047 3.356 0.64047 0.58015 0 2.4146 0.0176 3.3567-0.64047v-1.5118c-1.0693 0.41743-2.8374 0.52016-3.3567 0.52016-0.51935 0-2.3206-0.1238-3.356-0.52016z" color="#000000" stroke="#fff" stroke-linecap="round" stroke-linejoin="round" stroke-width=".29104"/>
  </g>
 </g>
</svg>
