<svg width="360" height="111.86" version="1.1" viewBox="0 0 360 111.86" xmlns="http://www.w3.org/2000/svg">
 <defs>
  <filter id="editing-jagged" x="0" y="0" width="1" height="1">
   <feTurbulence baseFrequency="0" result="turb" seed="1"/>
   <feDisplacementMap in="SourceGraphic" in2="turb"/>
  </filter>
 </defs>
 <g transform="translate(.027777)">
  <rect x="-.027777" y="36.805" width="360" height="75.025" rx="0" ry="0" stroke-width=".79031"/>
  <g transform="translate(-.027777 36.805)">
   <path d="m51.692 73.319c0.68841-0.71421 1.5768-2.0754 2.2828-3.4976l1.1557-2.3283 0.01631-3.8403c0.01527-3.5725 0.05894-3.9401 0.6288-5.272 1.3963-3.2638 1.9451-4.3714 2.8868-5.8268 0.85735-1.325 1.0029-1.7433 1.0795-3.1022 0.22559-4.002-2.622-11.097-5.8555-14.59-2.3215-2.5075-4.5801-3.7317-6.3377-3.4352-0.49515 0.08354-2.0522 0.85162-3.4601 1.7068-1.4079 0.85522-4.173 2.3355-6.1447 3.2896-5.3723 2.5996-6.1458 3.7171-6.468 9.344-0.20629 3.6026-0.50813 3.1832-0.53952-0.74981-0.0269-3.3678 0.7122-6.1379 2.1126-7.9183 0.26711-0.33959 0.48566-0.69866 0.48566-0.79796 0-0.21353-1.2817-0.75092-4.0206-1.6857l-1.9922-0.67996-0.94086 0.47999c-1.3465 0.68691-2.4943 1.9218-4.3219 4.6496-0.8805 1.3142-1.9789 2.7558-2.4408 3.2035l-0.8399 0.81406-0.02379 2.7571c-0.01324 1.5164-0.10977 3.0255-0.21484 3.3536-0.18764 0.5859-0.19155 0.58376-0.21757-0.1193-0.01449-0.39374-0.34743-1.7804-0.73967-3.0814-0.39224-1.301-0.71316-2.5577-0.71316-2.7927 0-0.72996 0.48979-1.5473 1.1669-1.9473 0.97511-0.57601 1.9352-1.6154 1.9352-2.095 0-0.65873-1.6254-0.88211-4.4658-0.61372-1.8219 0.17216-2.6865 0.15569-3.4237-0.06519-0.54245-0.16253-0.92491-0.35685-0.84992-0.43184 0.07499-0.07499 1.4509-0.33681 3.0576-0.58182 5.9266-0.90376 8.6835-2 10.205-4.0576l0.51797-0.70059-1.8472-1.9582c-2.5863-2.7416-4.896-5.9265-9.0403-12.466-2.3524-3.7118-3.7688-5.7214-4.1319-5.8625-1.1632-0.45209-3.3009-0.22884-6.0439 0.63118-1.4839 0.46524-2.9683 0.81423-3.2988 0.77554-0.51508-0.060289-0.35529-0.21835 1.1193-1.107 3.0059-1.8115 6.2991-2.439 8.3354-1.5882 0.47117 0.19686 0.90096 0.35794 0.95507 0.35794 0.05412 0 0.03065-0.51063-0.05214-1.1347-0.1911-1.4407 0.2325-5.1185 0.9962-8.649 0.75561-3.4932 0.7731-3.5452 1.044-3.1069 0.54781 0.88638 0.50894 2.6301-0.12808 5.745-1.0151 4.9635-0.71684 6.6521 2.0923 11.847 1.9823 3.6659 2.289 3.7178 1.9643 0.33208-0.10818-1.1278-0.20347-2.7486-0.21178-3.6017-0.01832-1.8899 0.45361-2.6393 2.4207-3.8434 0.72762-0.4454 2.0041-1.2544 2.8366-1.7978 1.4251-0.93023 1.4942-0.95117 1.1806-0.35794-0.18317 0.34654-1.1542 1.4355-2.1578 2.4198-1.0036 0.98434-1.9779 2.0797-2.1652 2.4341-0.69169 1.3092-0.10159 6.4982 1.0299 9.056 0.3968 0.89704 5.1661 7.1229 5.4564 7.1229 0.2381 0-0.69972-1.8569-1.2888-2.5519-0.35533-0.41919-1.0594-1.2487-1.5647-1.8433-1.007-1.1851-1.2432-1.9409-1.4901-4.7674-0.1112-1.2729-0.08477-1.835 0.08145-1.7323 0.13531 0.08363 0.31444 0.42449 0.398 0.75745 0.34537 1.3761 1.5622 3.486 3.9072 6.7745 1.3657 1.9152 2.7382 3.983 3.05 4.595 0.45276 0.88866 0.82347 1.2383 1.8407 1.7359 2.7082 1.325 4.9347 1.084 10.193-1.1035 1.9031-0.7916 3.9702-1.5928 4.5936-1.7805 0.62342-0.18766 1.1335-0.39431 1.1335-0.4592 0-0.06489-0.2538-0.6245-0.56399-1.2436-0.3102-0.61905-0.70164-1.5551-0.86987-2.0801-0.53417-1.667-1.6547-3.7813-2.4254-4.5764-0.40998-0.42299-1.4543-1.0623-2.3208-1.4206-1.9432-0.80366-2.5303-1.3082-3.2957-2.8322-0.3296-0.65623-0.82091-1.4348-1.0918-1.7301l-0.49253-0.53691h0.58507c0.77778 0 1.4121 0.47235 2.2415 1.6691 0.67086 0.96806 1.661 1.6717 2.3524 1.6717 0.26246 0 0.18411-0.30478-0.32213-1.2528-0.36794-0.68904-1.1637-2.6279-1.7683-4.3086-0.60465-1.6807-1.3403-3.5527-1.6347-4.16-0.49902-1.0293-0.63244-1.1306-1.9671-1.4938-1.9231-0.52323-2.6019-0.91274-4.3387-2.4897l-1.4752-1.3394-2.3429-0.14262c-1.4867-0.09052-2.727-0.30763-3.3939-0.59414-0.57808-0.24833-1.0076-0.49097-0.95452-0.5392 0.0531-0.04823 1.6865-0.214 3.6297-0.36837l3.5331-0.28067 1.4533 1.3455c2.0591 1.9064 3.0355 2.4913 4.4355 2.6571 1.1871 0.14059 1.2232 0.12665 1.4098-0.5437 0.10531-0.37839 0.18786-1.6544 0.18342-2.8356-0.0073-1.9465-0.08265-2.2977-0.80402-3.7497l-0.79596-1.6021 0.53253-1.9774c0.57111-2.1206 1.3014-3.7671 1.671-3.7671 0.24527 0 0.14472 0.76208-0.38238 2.898-0.60175 2.4384-0.44588 3.2713 1.0083 5.3878 0.5889 0.8571 0.61025 0.99535 0.43411 2.8105-0.33302 3.4318-0.29329 3.7785 0.54178 4.7296 0.63697 0.72546 0.78066 1.1215 0.91998 2.5354 0.0908 0.92159 0.2937 1.8515 0.45086 2.0664 0.2434 0.33286 0.35385 0.1831 0.7451-1.0102 0.36043-1.0993 0.45244-2.0176 0.42724-4.2645-0.03182-2.8385-0.13003-3.4701-1.6512-10.619-0.87586-4.1161-0.88314-7.1124-0.02551-10.5 0.34892-1.3781 0.63454-2.8746 0.63471-3.3257 1.78e-4 -0.47605-0.46145-1.8079-1.1004-3.1747-0.60538-1.2951-1.0486-2.4067-0.98499-2.4704 0.20904-0.20904 2.2749 2.275 2.8081 3.3766 0.43145 0.89127 0.50613 1.3912 0.43077 2.8836-0.08517 1.6869-0.06732 1.7686 0.27195 1.2438 0.45653-0.70606 1.8723-2.286 4.78-5.3342 3.8456-4.0314 5.2009-6.6379 5.4287-10.44 0.06882-1.1484 0.20508-2.088 0.30281-2.088 0.35218 0 0.46553 1.1353 0.46873 4.6946 0.0037 4.1296 0.29671 3.4206-2.8922 6.9982-3.0477 3.419-6.1708 7.5231-7.0639 9.2827-0.88013 1.734-0.89808 1.8229-0.89166 4.4165 0.0069 2.7918 0.19691 3.7265 1.9085 9.3898 1.209 4.0003 1.4223 6.0593 0.9452 9.1259-0.72716 4.6744-0.7271 5.2127 7.11e-4 6.932 0.35841 0.84662 1.0199 2.5058 1.47 3.687 1.6997 4.461 1.8277 4.6225 4.5305 5.7166 0.90102 0.36474 2.4124 1.0301 3.3587 1.4786 1.5885 0.75287 1.7787 0.92467 2.4792 2.2389 0.49072 0.92068 0.90856 1.4235 1.183 1.4235 0.52044 0 5.083-5.9365 6.468-8.4157 0.5303-0.94929 1.5171-2.5784 2.1929-3.6203 1.1634-1.7936 1.2331-1.9903 1.3106-3.6987 0.09499-2.0914-0.24512-3.6436-1.6895-7.7104l-0.99577-2.8039h-5.868l-0.90058 0.90058c-1.6135 1.6135-1.9725 3.9037-1.3672 8.7231 0.22709 1.8082 0.36228 3.3382 0.30042 3.4001-0.18489 0.18489-2.5603-3.579-2.8115-4.4549-0.23362-0.81459-0.29972-2.9829-0.07386-2.4227 0.06648 0.16488 0.21907 0.23908 0.33911 0.1649 0.27115-0.16758 0.29164-2.2544 0.02212-2.2544-0.10785 0-0.70429 0.17316-1.3254 0.38479-0.6211 0.21163-1.1824 0.33164-1.2474 0.26669-0.06495-0.06495 0.71939-0.70513 1.743-1.4226 2.0427-1.4319 3.4605-2.8702 4.0522-4.111l0.38364-0.8045 2.5711-0.07986c1.4141-0.04391 2.6453-0.1543 2.7359-0.24532 0.09067-0.091-0.19597-1.0923-0.63696-2.2251-0.92424-2.3741-0.91391-2.3669-4.7947-3.3506-1.2893-0.32683-2.9365-0.81581-3.6603-1.0866l-1.316-0.4924-2.0777 1.1801c-1.1427 0.64907-2.3461 1.2559-2.6742 1.3484l-0.59657 0.16832 0.49936-0.43256c2.1614-1.8722 4.2651-3.4151 4.9768-3.65 1.1798-0.38936 2.0271-0.15429 4.8403 1.3429 2.7695 1.4739 4.4887 1.8652 5.0775 1.1557 0.58922-0.70997 0.4194-2.0558-0.42554-3.3726-0.42356-0.66007-0.77011-1.2686-0.77011-1.3523 0-0.22782 1.0447 0.21359 2.1361 0.90252l0.96612 0.60988v3.061c0 3.9109 0.39613 5.4894 2.5999 10.36 0.92744 2.0499 1.9031 4.5095 2.1681 5.4658 0.513 1.8512 0.62058 4.4417 0.25071 6.037-0.12084 0.5213-0.18118 0.98637-0.13405 1.0335 0.18547 0.18547 1.195-0.5366 2.7667-1.979 1.0151-0.93153 1.8083-1.4788 2.0684-1.4271 0.23205 0.0462 1.2066 0.26447 2.1656 0.4851 1.0053 0.23127 2.2479 0.35269 2.9344 0.28673 1.393-0.13382 1.9816-0.61189 3.9393-3.1994 0.70934-0.93752 2.0137-2.2986 2.8985-3.0246 3.6025-2.9558 3.8191-3.3944 4.1282-8.361 0.12371-1.9876 0.2814-3.9519 0.35045-4.3651 0.19018-1.1382 0.93357-1.907 2.8735-2.9717 2.0371-1.118 2.8872-2.0142 3.0959-3.2638 0.26668-1.5963 0.8336-3.3934 1.0705-3.3934 0.34191 0 0.2767 2.3163-0.10564 3.7524-0.44386 1.6672-1.1236 2.7309-2.9911 4.6806l-1.5632 1.632 0.01743 1.5272c0.0097 0.83998 0.08748 1.5974 0.17321 1.6831 0.26583 0.26583 0.77158-0.32285 1.4796-1.7222l0.67988-1.3438 0.97264 0.14388c0.53496 0.07915 2.1655 0.21377 3.6234 0.29918l2.6508 0.1553 1.0479-0.724c0.57637-0.3982 2.3902-1.9232 4.0308-3.3888 4.0347-3.6045 6.8378-4.9562 9.831-4.7405l1.0266 0.07399-0.61479 0.4179c-0.33814 0.22984-1.6225 0.63325-2.8542 0.89646-1.3075 0.27942-2.6084 0.72274-3.1261 1.0653-0.48766 0.32272-1.9098 1.7554-3.1604 3.1836-1.2506 1.4283-2.5202 2.7632-2.8214 2.9666l-0.54766 0.36971 0.63788 0.68071c0.35084 0.37439 1.4101 1.9156 2.3538 3.4249 2.1752 3.4787 3.1114 4.626 4.361 5.3444 2.4551 1.4115 3.8741 1.0704 6.4281-1.5452 1.0172-1.0417 1.8494-1.8276 1.8494-1.7465 0 0.08109-0.33585 0.77755-0.74633 1.5477-0.89043 1.6706-2.1402 3.0154-3.2226 3.4677-1.7155 0.71679-6.0262 0.15811-7.2157-0.93519-0.31425-0.28883-1.2537-1.9342-2.0877-3.6563-1.0969-2.2651-1.7814-3.3707-2.4747-3.997l-0.95839-0.86585h-3.4399c-1.892 0-3.5882-0.0569-3.7694-0.12644-0.20535-0.0788-0.52123 0.21342-0.83834 0.77554-0.27985 0.49609-1.5954 2.3934-2.9235 4.2162-2.7293 3.7461-3.3452 4.8254-3.3452 5.8628 0 1.0473 1.3827 2.4582 3.3963 3.4655 1.4582 0.72951 1.9023 0.83887 3.377 0.83159 0.9339-0.0047 2.395-0.15777 3.2468-0.34034 0.85184-0.18257 1.5541-0.31303 1.5606-0.2899 7e-3 0.02315 0.60673 0.79373 1.3338 1.7124 2.554 3.227 3.2066 4.6732 3.0219 6.6966l-0.0857 0.93956-0.29392-0.68392c-0.16165-0.37616-0.63007-1.4914-1.0409-2.4784-0.41087-0.98696-1.069-2.1612-1.4626-2.6094-1.3896-1.5827-2.4077-1.7762-6.1331-1.1658-1.1156 0.18279-2.3045 0.27944-2.6421 0.21476-0.55453-0.10623-0.68434 0.02824-1.3449 1.3935-0.63491 1.3123-0.88874 2.1586-1.3941 4.648-0.06203 0.3056-0.51336 0.72296-1.1198 1.0356-1.2958 0.6679-2.0983 1.4186-3.5494 3.3203-0.64087 0.83986-1.1652 1.4327-1.1652 1.3175 0-0.11522 0.28063-0.94389 0.62362-1.8415 0.47818-1.2514 0.77026-1.6877 1.2524-1.871 1.5764-0.59936 2.2413-1.8759 3.046-5.8481l0.60748-2.9987-0.67675-0.70695c-0.37222-0.38884-1.239-1.0288-1.9261-1.4221-1.2435-0.71182-1.2528-0.71314-1.9838-0.28204-0.40398 0.23823-1.4408 1.3241-2.3041 2.4131-0.86326 1.089-1.9034 2.159-2.3115 2.3778-0.56086 0.30077-1.6535 0.43213-4.4772 0.53828-4.31 0.16204-4.5583 0.26247-7.0594 2.8566-1.9119 1.983-2.9747 3.8566-4.034 7.1119-0.76308 2.3449-0.90918 3.1201-0.90884 4.8224 4.72e-4 1.9305 0.06695 2.1876 1.3797 5.3279 0.75862 1.8148 1.4421 3.8299 1.5189 4.4782 0.11614 0.98066 0.23371 1.2023 0.69988 1.3193 0.53508 0.1343 1.5836 1.1809 2.1378 2.1338 0.23645 0.40661 0.60205 0.44756 4.0567 0.45443 2.4122 5e-3 4.1616-0.10323 4.7971-0.2962 0.55015-0.16707 1.8924-1.0088 2.9829-1.8704 2.8552-2.2563 2.9251-2.2823 6.5023-2.4178 2.9055-0.11013 3.2133-0.1684 4.5482-0.86094 1.833-0.95098 5.0486-4.1472 6.8649-6.8234 1.3242-1.9511 1.3676-1.9891 1.3621-1.1931-8e-3 1.0891-0.91905 3.2613-1.8559 4.4225-0.41426 0.51349-1.6099 1.6316-2.657 2.4847-2.2003 1.7927-2.4128 1.5393 2.013 2.4005 2.9812 0.58006 2.9426 0.56479 3.2116 1.2723 0.10962 0.28834 0.85321 1.5859 1.6524 2.8834 0.7992 1.2975 1.4101 2.4022 1.3575 2.4548-0.23061 0.2306-1.0914-0.49602-2.0322-1.7155-1.4499-1.8793-2.6933-2.929-3.8775-3.2731-1.585-0.46069-8.5057-0.39043-10.515 0.10675-2.2481 0.55617-4.599 1.7894-4.1903 2.1981 0.05008 0.05008 1.0621 0.18846 2.249 0.3075l2.1579 0.21645 1.0967 1.1725c0.60318 0.64485 1.8548 1.8148 2.7815 2.5998 1.2516 1.0604 1.6856 1.5807 1.6882 2.0239 0.0019 0.32812 0.28546 2.069 0.6302 3.8687 0.79333 4.1416 0.61203 4.8463-0.53756 2.0895-0.46348-1.1115-1.0231-2.532-1.2436-3.1568-0.33051-0.93654-0.93472-1.6337-3.4419-3.9715l-3.0411-2.8356-0.89299 0.21143c-0.49115 0.1163-2.987 0.48525-5.5463 0.81992-5.4895 0.71785-7.7227 1.1533-9.232 1.8003-1.318 0.56497-1.4454 0.71935-2.6936 3.2634-1.0472 2.1345-1.6671 4.3508-1.6727 5.9799-0.0042 1.2669-0.21339 1.6789-1.8063 3.5595-1.604 1.8938-1.8851 2.7104-1.5525 4.5099 0.32026 1.7324 0.32097 3.5324 0.0019 4.6815l-0.24852 0.89486h-14.685l1.127-1.1693z" fill="#fff" stroke="#000" stroke-width="1.139"/>
   <g transform="matrix(1.6701 0 0 1.6701 -54.385 -31.589)">
    <path d="m193.03 26.678q15.274 0 15.274 14.557t-15.274 14.557h-12.614v-29.114zm-3.2602 6.9828v15.149h3.0878q5.8856 0 5.8856-6.3049v-2.5392q0-6.3049-5.8856-6.3049zm42.955-6.9828q2.2022 0 4.04 0.90909 1.8417 0.90909 2.9232 2.5588 1.0776 1.6497 1.0776 3.6834 0 5.3723-4.8668 6.7712v0.1685q5.5447 1.2696 5.5447 7.2806 0 2.2845-1.1207 4.04-1.1246 1.7555-3.0682 2.7312-1.9475 0.97179-4.2751 0.97179h-19.636v-29.114zm-10.031 6.3872v4.953h6.4342q0.93261 0 1.5439-0.65439 0.61521-0.65831 0.61521-1.6301v-0.4232q0-0.9326-0.6348-1.587-0.6348-0.65831-1.5243-0.65831zm0 10.964v4.9922h7.1121q0.92868 0 1.5439-0.65439 0.61521-0.65831 0.61521-1.6301v-0.4232q0-0.97571-0.61521-1.6301-0.6152-0.65439-1.5439-0.65439z" fill="#a00" stroke-width=".39185"/>
    <g transform="matrix(.62581 0 0 .62581 -24.167 -5.1202)" fill="#fff" filter="url(#editing-jagged)">
     <g transform="translate(178,96.695)" fill="#fff">
      <path d="m3.46-7.55v-34.11q0.64-0.2 2.04-0.42 1.41-0.22 2.88-0.22 1.41 0 2.53 0.19t1.89 0.77q0.77 0.57 1.15 1.56 0.39 1 0.39 2.6v6.27q1.6-0.64 3.04-0.9 1.44-0.25 3.16-0.25 3.08 0 5.83 1.08 2.75 1.09 4.86 3.17t3.33 5.15q1.22 3.08 1.22 7.11 0 4.16-1.25 7.26-1.25 3.11-3.49 5.15-2.24 2.05-5.47 3.11-3.23 1.05-7.14 1.05-4.22 0-7.17-0.99-2.94-0.99-4.99-2.46-2.81-1.99-2.81-5.12zm14.97 0q2.95 0 4.58-2.02 1.63-2.01 1.63-5.98 0-4.03-1.66-6.02-1.67-1.98-4.48-1.98-1.28 0-2.21 0.25-0.93 0.26-2.02 0.77v13.95q0.71 0.45 1.7 0.74t2.46 0.29zm22.66-4.8v-18.31q0.64-0.19 2.01-0.38 1.38-0.19 2.85-0.19 1.41 0 2.53 0.19t1.89 0.77q0.77 0.57 1.18 1.57 0.42 0.99 0.42 2.59v13.76q0 2.62 1.28 3.74t3.71 1.12q1.47 0 2.4-0.25 0.93-0.26 1.44-0.52v-22.4q0.64-0.19 2.02-0.38 1.37-0.19 2.84-0.19 1.41 0 2.53 0.19t1.89 0.77q0.77 0.57 1.18 1.57 0.42 0.99 0.42 2.59v19.45q0 3.2-2.69 4.8-2.24 1.41-5.34 2.15-3.11 0.73-6.75 0.73-3.46 0-6.37-0.76-2.91-0.77-5.03-2.37-2.11-1.6-3.26-4.13t-1.15-6.11zm63.49 3.07q0 4.86-3.65 7.62-3.65 2.75-10.75 2.75-2.69 0-5-0.39-2.3-0.38-3.93-1.18t-2.56-2.02q-0.93-1.21-0.93-2.88 0-1.53 0.64-2.59 0.64-1.05 1.54-1.76 1.85 1.03 4.25 1.83t5.54 0.8q1.98 0 3.04-0.58 1.05-0.58 1.05-1.54 0-0.89-0.76-1.4-0.77-0.52-2.56-0.84l-1.92-0.38q-5.57-1.09-8.29-3.42-2.72-2.34-2.72-6.69 0-2.37 1.02-4.29 1.03-1.92 2.88-3.2 1.86-1.28 4.45-1.98 2.59-0.71 5.73-0.71 2.37 0 4.45 0.35 2.08 0.36 3.61 1.06 1.54 0.7 2.43 1.82 0.9 1.12 0.9 2.66 0 1.47-0.54 2.53-0.55 1.05-1.38 1.76-0.51-0.32-1.54-0.67-1.02-0.36-2.24-0.64-1.21-0.29-2.46-0.48-1.25-0.2-2.27-0.2-2.11 0-3.27 0.48-1.15 0.48-1.15 1.51 0 0.7 0.64 1.15t2.43 0.83l1.99 0.45q6.14 1.41 8.73 3.87 2.6 2.47 2.6 6.37zm35.96-10.18v19.4q-0.64 0.19-2.01 0.38-1.38 0.19-2.85 0.19-1.41 0-2.53-0.19t-1.89-0.77q-0.76-0.57-1.18-1.57-0.42-0.99-0.42-2.59v-14.21q0-2.62-1.31-3.68-1.31-1.05-3.23-1.05-1.28 0-2.43 0.32t-1.86 0.77v22.4q-0.64 0.19-2.01 0.38-1.38 0.19-2.85 0.19-1.41 0-2.53-0.19t-1.89-0.77q-0.77-0.57-1.18-1.57-0.42-0.99-0.42-2.59v-37.12q0.71-0.13 2.08-0.35 1.38-0.22 2.79-0.22 1.4 0 2.52 0.19t1.89 0.77q0.77 0.57 1.19 1.56 0.41 1 0.41 2.6v6.27q0.83-0.32 2.53-0.74 1.7-0.41 3.74-0.41 6.34 0 9.89 3.16 3.55 3.17 3.55 9.44z" fill="#fff"/>
     </g>
    </g>
   </g>
  </g>
 </g>
</svg>
