<svg version="1.1" viewBox="0 0 331.62 100" xmlns="http://www.w3.org/2000/svg">
 <g transform="matrix(.79556 0 0 .79556 35.294 11.462)">
  <rect x="-44.364" y="-14.407" width="416.83" height="125.7" ry="4.3476" fill="#11002b"/>
  <g transform="matrix(1.2654,0,0,1.2654,-44.381,-14.294)" fill="#0cf" featurekey="symbolFeature-0">
   <path d="m77.1 26.7c-1.6-1-3.8-1.9-6.5-2.7-5.6-1.6-12.9-2.4-20.6-2.4s-15 0.8-20.5 2.4c-2.8 0.8-5 1.7-6.5 2.7-2 1.3-2.9 2.8-2.9 4.4v37.9c0 1.6 1 3.1 2.9 4.4 1.6 1 3.8 1.9 6.5 2.7 5.5 1.5 12.8 2.4 20.5 2.4s15-0.8 20.5-2.4c2.8-0.8 5-1.7 6.5-2.7 2-1.3 2.9-2.8 2.9-4.4v-38c0.1-1.6-0.9-3.1-2.8-4.3zm-46.8 0.3c5.2-1.5 12.2-2.3 19.7-2.3s14.4 0.8 19.7 2.3c5.7 1.6 7.2 3.3 7.2 4.1 0 0.7-1.5 2.5-7.2 4.1-5.2 1.5-12.2 2.3-19.7 2.3s-14.4-0.8-19.7-2.3c-5.7-1.6-7.2-3.3-7.2-4.1 0.1-0.8 1.6-2.5 7.2-4.1zm39.4 33.4c-5.2 1.5-12.2 2.3-19.7 2.3s-14.4-0.8-19.7-2.3c-5.7-1.6-7.2-3.3-7.2-4.1v-8.1c1.6 1 3.7 1.8 6.3 2.6 5.5 1.5 12.8 2.4 20.5 2.4s15-0.8 20.5-2.4c2.6-0.7 4.8-1.6 6.3-2.6v8.1c0.1 0.7-1.4 2.5-7 4.1z" fill="#0cf"/>
  </g>
  <g transform="matrix(.45149 0 0 .45149 70.398 61.829)" fill="#fff">
   <path d="m95.47 0h-23.65v-26.78q0-4.97 0.38-10.21t0.81-8.8q0.43-3.57 0.54-4.54h-0.43l-13.72 50.33h-18.68l-13.83-50.22h-0.43q0.11 0.97 0.59 4.48 0.49 3.51 0.92 8.75t0.43 10.21v26.78h-21.92v-74.3h33.7l11.23 42.87h0.43l11.12-42.87h32.51zm41.15-58.32q13.07 0 21.28 4.37 8.2 4.38 8.2 14.21v22.24q0 1.84 0.87 3.03 0.86 1.19 2.59 1.19h3.89v12.42q-0.33 0.21-1.68 0.7-1.35 0.48-3.83 0.97t-5.72 0.49q-6.27 0-10.32-1.89t-5.56-5.24q-4.1 3.24-9.18 5.18-5.08 1.95-11.88 1.95-20.09 0-20.09-15.99 0-8.31 4.48-12.69 4.49-4.37 12.91-5.99t22.03-1.62v-2.81q0-3.35-2.32-5.08-2.32-1.72-5.99-1.72-3.35 0-5.78 1.18-2.43 1.19-2.43 3.78v0.44h-21.17q-0.11-0.54-0.11-1.52 0-8.1 7.72-12.85 7.73-4.75 22.09-4.75zm7.99 33.48q-9.18 0-13.55 2-4.38 2-4.38 5.34 0 5.4 7.35 5.4 4.21 0 7.4-2.26 3.18-2.27 3.18-5.62zm70.53-33.59q2.48 0 4.42 0.6 1.95 0.59 1.95 0.7v18.03h-6.91q-6.7 0-9.67 3.46t-2.97 10.26v25.38h-21.49v-57.02h17.6l1.41 8.64q1.94-4.97 6.15-7.51t9.51-2.54zm35.53-5.29h-21.49v-14.58h21.49zm0 63.72h-21.49v-57.02h21.49zm35.31-51.73q6.16-6.59 15.99-6.59 11.55 0 17.82 7.51 6.26 7.5 6.26 22.19 0 14.8-6.26 22.36-6.27 7.56-17.82 7.56-11.88 0-18.15-9.4l-1.83 8.1h-17.5v-78.3h21.49zm9.29 9.29q-4.75 0-7.13 3.4-2.37 3.4-2.37 8.8v3.56q0 5.4 2.37 8.75 2.38 3.35 7.13 3.35 9.29 0 9.29-11.02v-5.72q0-11.12-9.29-11.12zm70.63-15.88q15.02 0 23.6 7.61 8.59 7.62 8.59 22.2t-8.59 22.19q-8.58 7.62-23.6 7.62-15.01 0-23.54-7.56t-8.53-22.25 8.53-22.25 23.54-7.56zm0 14.58q-10.58 0-10.58 12.2v6.16q0 12.1 10.58 12.1 10.7 0 10.7-12.1v-6.16q0-12.2-10.7-12.2zm77.22-14.69q2.49 0 4.43 0.6 1.95 0.59 1.95 0.7v18.03h-6.92q-6.69 0-9.66 3.46t-2.97 10.26v25.38h-21.49v-57.02h17.6l1.4 8.64q1.95-4.97 6.16-7.51t9.5-2.54z" fill="#fff"/>
  </g>
  <g transform="matrix(.49254 0 0 .49254 276.26 62.373)" fill="#d40000">
   <path d="m40.18-74.3q38.98 0 38.98 37.15t-38.98 37.15h-32.19v-74.3zm-8.32 17.82v38.66h7.88q15.02 0 15.02-16.09v-6.48q0-16.09-15.02-16.09zm109.62-17.82q5.62 0 10.31 2.32 4.7 2.32 7.46 6.53 2.75 4.21 2.75 9.4 0 13.71-12.42 17.28v0.43q14.15 3.24 14.15 18.58 0 5.83-2.86 10.31-2.87 4.48-7.83 6.97-4.97 2.48-10.91 2.48h-50.11v-74.3zm-25.6 16.3v12.64h16.42q2.38 0 3.94-1.67 1.57-1.68 1.57-4.16v-1.08q0-2.38-1.62-4.05-1.62-1.68-3.89-1.68zm0 27.98v12.74h18.15q2.37 0 3.94-1.67 1.57-1.68 1.57-4.16v-1.08q0-2.49-1.57-4.16t-3.94-1.67z" fill="#d40000"/>
  </g>
 </g>
</svg>
