<svg version="1.1" viewBox="0 0 331.61 84.995" xmlns="http://www.w3.org/2000/svg">
 <rect transform="matrix(.43776 .89909 -.9354 .3536 0 0)" x="38.951" y="-27.203" width="25.899" height="27.704" fill="#fff" stroke-width="1.0676"/>
 <rect x="4.2249e-7" y="-.00032498" width="331.61" height="84.996" ry="2.9398" fill="#00222b" stroke-width=".73344"/>
 <path d="m121.35 56.511h-8.4948v-9.6191q0-1.7852 0.13649-3.6673 0.13649-1.8822 0.29094-3.1609 0.15446-1.2823 0.19397-1.6307h-0.15445l-4.9281 18.078h-6.7097l-4.9676-18.039h-0.15445q0.03951 0.34841 0.21192 1.6092 0.176 1.2608 0.33046 3.1429 0.15445 1.8822 0.15445 3.6673v9.6191h-7.8734v-26.688h12.105l4.0337 15.398h0.15445l3.9942-15.398h11.677zm14.781-20.948q4.6946 0 7.6436 1.5697 2.9454 1.5733 2.9454 5.1041v7.9884q0 0.66091 0.3125 1.0883 0.3089 0.42744 0.9303 0.42744h1.3972v4.4611q-0.11853 0.07543-0.60344 0.25143-0.48491 0.17241-1.3757 0.34841t-2.0546 0.176q-2.2521 0-3.7068-0.67887t-1.9971-1.8822q-1.4727 1.1638-3.2974 1.8606-1.8247 0.70042-4.2672 0.70042-7.2161 0-7.2161-5.7434 0-2.9849 1.6092-4.5581 1.6128-1.5697 4.6371-2.1515 3.0244-0.58189 7.913-0.58189v-1.0093q0-1.2033-0.83332-1.8247-0.83332-0.61781-2.1516-0.61781-1.2033 0-2.0761 0.42384-0.87283 0.42744-0.87283 1.3577v0.15804h-7.604q-0.0395-0.19396-0.0395-0.54597 0-2.9094 2.7729-4.6156 2.7765-1.7062 7.9345-1.7062zm2.8699 12.026q-3.2974 0-4.867 0.71838-1.5732 0.71838-1.5732 1.9181 0 1.9396 2.64 1.9396 1.5122 0 2.658-0.81177 1.1422-0.81536 1.1422-2.0186zm25.334-12.065q0.89079 0 1.5876 0.21551 0.70042 0.21192 0.70042 0.25143v6.4762h-2.482q-2.4066 0-3.4734 1.2428t-1.0668 3.6853v9.1162h-7.719v-20.481h6.3218l0.50645 3.1034q0.69683-1.7852 2.209-2.6975 1.5122-0.91234 3.4159-0.91234zm12.762-1.9001h-7.719v-5.237h7.719zm0 22.888h-7.719v-20.481h7.719zm12.683-18.581q2.2126-2.3671 5.7434-2.3671 4.1486 0 6.4008 2.6975 2.2485 2.6939 2.2485 7.9704 0 5.316-2.2485 8.0315-2.2521 2.7155-6.4008 2.7155-4.2672 0-6.5193-3.3764l-0.65732 2.9094h-6.2858v-28.125h7.719zm3.3369 3.3369q-1.7062 0-2.561 1.2212-0.85128 1.2212-0.85128 3.1609v1.2787q0 1.9396 0.85128 3.1429 0.85487 1.2033 2.561 1.2033 3.3369 0 3.3369-3.9583v-2.0546q0-3.9942-3.3369-3.9942zm25.37-5.7039q5.395 0 8.4769 2.7334 3.0854 2.737 3.0854 7.974t-3.0854 7.9704q-3.0818 2.737-8.4769 2.737-5.3914 0-8.4553-2.7155t-3.0639-7.992 3.0639-7.992 8.4553-2.7155zm0 5.237q-3.8002 0-3.8002 4.3821v2.2126q0 4.3462 3.8002 4.3462 3.8433 0 3.8433-4.3462v-2.2126q0-4.3821-3.8433-4.3821zm27.737-5.2765q0.89438 0 1.5912 0.21551 0.70042 0.21192 0.70042 0.25143v6.4762h-2.4856q-2.403 0-3.4698 1.2428t-1.0668 3.6853v9.1162h-7.719v-20.481h6.3217l0.50287 3.1034q0.70042-1.7852 2.2126-2.6975 1.5122-0.91234 3.4123-0.91234z" fill="#fff" stroke-width=".35919"/>
 <path d="m266.58 28.125q15.274 0 15.274 14.557t-15.274 14.557h-12.614v-29.114zm-3.2602 6.9828v15.149h3.0878q5.8856 0 5.8856-6.3049v-2.5392q0-6.3049-5.8856-6.3049zm42.955-6.9828q2.2022 0 4.04 0.90909 1.8417 0.90909 2.9232 2.5588 1.0776 1.6497 1.0776 3.6834 0 5.3723-4.8668 6.7712v0.1685q5.5447 1.2696 5.5447 7.2806 0 2.2845-1.1207 4.04-1.1246 1.7555-3.0682 2.7312-1.9475 0.97179-4.2751 0.97179h-19.636v-29.114zm-10.031 6.3872v4.953h6.4342q0.93261 0 1.5439-0.65439 0.61521-0.65831 0.61521-1.6301v-0.4232q0-0.9326-0.6348-1.587-0.6348-0.65831-1.5243-0.65831zm0 10.964v4.9922h7.1121q0.92868 0 1.5439-0.65439 0.61521-0.65831 0.61521-1.6301v-0.4232q0-0.97571-0.61521-1.6301-0.6152-0.65439-1.5439-0.65439z" fill="#d40000" stroke-width=".39185"/>
 <rect transform="matrix(.94888 -.31563 .28825 .95755 0 0)" x="6.1569" y="38.476" width="27.828" height="25.298" rx="0" ry="3.1491" fill="#fff" stroke-width="1.0496"/>
 <path d="m69.761 49.739-19.264 19.224c-0.0754 0.07759-0.1907 0.11532-0.26828 0.07759l-26.313-7.0518c-0.11532-0.03746-0.1929-0.11532-0.1929-0.1907l-7.0873-26.273c-0.0396-0.11752 0-0.19291 0.0776-0.27057l19.262-19.224c0.0776-0.07758 0.1929-0.11531 0.26829-0.07758l26.313 7.0518c0.11532 0.03746 0.1929 0.11531 0.1929 0.1907l7.0518 26.273c0.0754 0.11752 0.0352 0.1929-0.0396 0.27057zm-25.812-20.918-25.85 6.8965c-0.0374 0-0.0776 0.07537-0.0374 0.11532l18.916 18.876c0.0374 0.03746 0.11532 0.03746 0.11532-0.03746l6.9342-25.812c0.0374 0-0.0396-0.07759-0.0776-0.03746z" fill="#87cdde" stroke-width="2.2175"/>
</svg>
