<svg version="1.1" viewBox="0 0 331.61 84.995" xmlns="http://www.w3.org/2000/svg">
 <defs>
  <filter id="editing-jagged" x="0" y="0" width="1" height="1">
   <feTurbulence baseFrequency="0" result="turb" seed="1"/>
   <feDisplacementMap in="SourceGraphic" in2="turb"/>
  </filter>
 </defs>
 <rect transform="matrix(.43776 .89909 -.9354 .3536 0 0)" x="38.951" y="-27.203" width="25.899" height="27.704" fill="#fff" stroke-width="1.0676"/>
 <rect x="4.2249e-7" y="-.00032498" width="331.61" height="84.996" ry="2.9398" fill="#025" stroke-width=".73344"/>
 <path d="m193.03 26.678q15.274 0 15.274 14.557t-15.274 14.557h-12.614v-29.114zm-3.2602 6.9828v15.149h3.0878q5.8856 0 5.8856-6.3049v-2.5392q0-6.3049-5.8856-6.3049zm42.955-6.9828q2.2022 0 4.04 0.90909 1.8417 0.90909 2.9232 2.5588 1.0776 1.6497 1.0776 3.6834 0 5.3723-4.8668 6.7712v0.1685q5.5447 1.2696 5.5447 7.2806 0 2.2845-1.1207 4.04-1.1246 1.7555-3.0682 2.7312-1.9475 0.97179-4.2751 0.97179h-19.636v-29.114zm-10.031 6.3872v4.953h6.4342q0.93261 0 1.5439-0.65439 0.61521-0.65831 0.61521-1.6301v-0.4232q0-0.9326-0.6348-1.587-0.6348-0.65831-1.5243-0.65831zm0 10.964v4.9922h7.1121q0.92868 0 1.5439-0.65439 0.61521-0.65831 0.61521-1.6301v-0.4232q0-0.97571-0.61521-1.6301-0.6152-0.65439-1.5439-0.65439z" fill="#59f" stroke-width=".39185"/>
 <rect transform="matrix(.94888 -.31563 .28825 .95755 0 0)" x="6.1569" y="38.476" width="27.828" height="25.298" rx="0" ry="3.1491" fill="#fff" stroke-width="1.0496"/>
 <path d="m69.761 49.739-19.264 19.224c-0.0754 0.07759-0.1907 0.11532-0.26828 0.07759l-26.313-7.0518c-0.11532-0.03746-0.1929-0.11532-0.1929-0.1907l-7.0873-26.273c-0.0396-0.11752 0-0.19291 0.0776-0.27057l19.262-19.224c0.0776-0.07758 0.1929-0.11531 0.26829-0.07758l26.313 7.0518c0.11532 0.03746 0.1929 0.11531 0.1929 0.1907l7.0518 26.273c0.0754 0.11752 0.0352 0.1929-0.0396 0.27057zm-25.812-20.918-25.85 6.8965c-0.0374 0-0.0776 0.07537-0.0374 0.11532l18.916 18.876c0.0374 0.03746 0.11532 0.03746 0.11532-0.03746l6.9342-25.812c0.0374 0-0.0396-0.07759-0.0776-0.03746z" fill="#2a7fff" stroke-width="2.2175"/>
 <g transform="matrix(.62581 0 0 .62581 -24.167 -5.1202)" fill="#fff" filter="url(#editing-jagged)">
  <g transform="translate(178 96.695)" fill="#fff">
   <path d="m3.46-7.55v-34.11q0.64-0.2 2.04-0.42 1.41-0.22 2.88-0.22 1.41 0 2.53 0.19t1.89 0.77q0.77 0.57 1.15 1.56 0.39 1 0.39 2.6v6.27q1.6-0.64 3.04-0.9 1.44-0.25 3.16-0.25 3.08 0 5.83 1.08 2.75 1.09 4.86 3.17t3.33 5.15q1.22 3.08 1.22 7.11 0 4.16-1.25 7.26-1.25 3.11-3.49 5.15-2.24 2.05-5.47 3.11-3.23 1.05-7.14 1.05-4.22 0-7.17-0.99-2.94-0.99-4.99-2.46-2.81-1.99-2.81-5.12zm14.97 0q2.95 0 4.58-2.02 1.63-2.01 1.63-5.98 0-4.03-1.66-6.02-1.67-1.98-4.48-1.98-1.28 0-2.21 0.25-0.93 0.26-2.02 0.77v13.95q0.71 0.45 1.7 0.74t2.46 0.29zm22.66-4.8v-18.31q0.64-0.19 2.01-0.38 1.38-0.19 2.85-0.19 1.41 0 2.53 0.19t1.89 0.77q0.77 0.57 1.18 1.57 0.42 0.99 0.42 2.59v13.76q0 2.62 1.28 3.74t3.71 1.12q1.47 0 2.4-0.25 0.93-0.26 1.44-0.52v-22.4q0.64-0.19 2.02-0.38 1.37-0.19 2.84-0.19 1.41 0 2.53 0.19t1.89 0.77q0.77 0.57 1.18 1.57 0.42 0.99 0.42 2.59v19.45q0 3.2-2.69 4.8-2.24 1.41-5.34 2.15-3.11 0.73-6.75 0.73-3.46 0-6.37-0.76-2.91-0.77-5.03-2.37-2.11-1.6-3.26-4.13t-1.15-6.11zm63.49 3.07q0 4.86-3.65 7.62-3.65 2.75-10.75 2.75-2.69 0-5-0.39-2.3-0.38-3.93-1.18t-2.56-2.02q-0.93-1.21-0.93-2.88 0-1.53 0.64-2.59 0.64-1.05 1.54-1.76 1.85 1.03 4.25 1.83t5.54 0.8q1.98 0 3.04-0.58 1.05-0.58 1.05-1.54 0-0.89-0.76-1.4-0.77-0.52-2.56-0.84l-1.92-0.38q-5.57-1.09-8.29-3.42-2.72-2.34-2.72-6.69 0-2.37 1.02-4.29 1.03-1.92 2.88-3.2 1.86-1.28 4.45-1.98 2.59-0.71 5.73-0.71 2.37 0 4.45 0.35 2.08 0.36 3.61 1.06 1.54 0.7 2.43 1.82 0.9 1.12 0.9 2.66 0 1.47-0.54 2.53-0.55 1.05-1.38 1.76-0.51-0.32-1.54-0.67-1.02-0.36-2.24-0.64-1.21-0.29-2.46-0.48-1.25-0.2-2.27-0.2-2.11 0-3.27 0.48-1.15 0.48-1.15 1.51 0 0.7 0.64 1.15t2.43 0.83l1.99 0.45q6.14 1.41 8.73 3.87 2.6 2.47 2.6 6.37zm35.96-10.18v19.4q-0.64 0.19-2.01 0.38-1.38 0.19-2.85 0.19-1.41 0-2.53-0.19t-1.89-0.77q-0.76-0.57-1.18-1.57-0.42-0.99-0.42-2.59v-14.21q0-2.62-1.31-3.68-1.31-1.05-3.23-1.05-1.28 0-2.43 0.32t-1.86 0.77v22.4q-0.64 0.19-2.01 0.38-1.38 0.19-2.85 0.19-1.41 0-2.53-0.19t-1.89-0.77q-0.77-0.57-1.18-1.57-0.42-0.99-0.42-2.59v-37.12q0.71-0.13 2.08-0.35 1.38-0.22 2.79-0.22 1.4 0 2.52 0.19t1.89 0.77q0.77 0.57 1.19 1.56 0.41 1 0.41 2.6v6.27q0.83-0.32 2.53-0.74 1.7-0.41 3.74-0.41 6.34 0 9.89 3.16 3.55 3.17 3.55 9.44z" fill="#fff"/>
  </g>
 </g>
</svg>
